<svg width="117" height="19" viewBox="0 0 117 19" fill="none" xmlns="http://www.w3.org/2000/svg">
<path d="M5.45327 2.91235C6.83653 1.66615 8.63261 0.90876 10.6003 0.887274C12.2355 0.871159 13.7635 1.3761 15.0395 2.24628C13.4901 0.85506 11.4742 0.0170898 9.26527 0.0170898C4.36491 0.0170898 0.386719 4.16928 0.386719 9.28834C0.386719 10.6796 0.681592 11.9956 1.20165 13.1773C2.39725 15.8899 5.02436 17.7753 8.06966 17.7753C11.115 17.7753 13.7367 15.8094 14.809 13.0216C15.0074 12.5059 15.1146 11.9472 15.1146 11.3564C15.1146 9.54079 13.7045 8.06362 11.9621 8.06362C10.8415 8.06362 9.86038 8.67062 9.30279 9.59452C8.7452 10.5131 7.7587 11.12 6.64352 11.12C5.52834 11.12 4.46141 10.4701 3.89309 9.43338C3.67863 9.04663 3.56068 8.62764 3.50707 8.13883C3.48562 7.93471 3.46955 7.72521 3.46955 7.49424C3.45347 5.66792 4.22551 4.01888 5.45864 2.91235" fill="#E7372F"/>
<path d="M10.6915 1.36539C14.4767 1.36539 18.1385 4.44863 18.1385 9.27763C18.1385 13.2955 15.6937 16.7333 12.2677 18.0171C14.927 16.6366 16.7553 13.7736 16.7553 10.4594C16.7553 6.23735 13.4794 2.8157 9.43688 2.8157C7.68905 2.8157 6.09134 3.49788 4.87966 4.62053C4.74026 4.74944 4.61159 4.88911 4.48828 5.03414C4.81533 4.33048 5.28178 3.71274 5.85009 3.21319C7.15292 2.06369 8.84714 1.37076 10.6915 1.37076" fill="#E7372F"/>
<path d="M30.1651 4.44861V7.24181H29.0499V5.47993H23.2542V4.45399H30.1705L30.1651 4.44861ZM26.1655 10.3788V9.0144H22.6055V7.98846H30.846V9.0144H27.2807V10.3788H30.1865V13.6446H29.0714V11.3994H23.1738V10.3788H26.1708H26.1655Z" fill="#E7372F"/>
<path d="M38.7306 4.26062H39.8458V9.4871H38.7306V4.26062ZM38.7521 11.5229H33.9161V12.4683H38.7521V11.5229ZM32.8223 9.804H33.9161V10.5829H38.7521V9.804H39.8458V13.4352H32.8223V9.804ZM37.1544 9.30983H32.3184V6.45755H35.9481V5.52291H32.3184V4.53454H37.0525V7.39757H33.4228V8.34296H37.149V9.30983H37.1544Z" fill="#E7372F"/>
<path d="M48.9327 4.44861V7.24181H47.8175V5.47993H42.0218V4.45399H48.938L48.9327 4.44861ZM44.9331 10.3788V9.0144H41.373V7.98846H49.6136V9.0144H46.0482V10.3788H48.9541V13.6446H47.8389V11.3994H41.9414V10.3788H44.9384H44.9331Z" fill="#E7372F"/>
<path d="M58.029 9.51936H56.9246V4.26065H58.029V6.19976H59.3158V7.35462H58.029V9.51398V9.51936ZM54.4422 6.79062C54.4422 6.5865 54.4047 6.3985 54.3243 6.22124C54.2492 6.04398 54.1474 5.8882 54.0294 5.74854C53.8954 5.62499 53.7452 5.51759 53.579 5.43702C53.4128 5.35644 53.2359 5.31882 53.0483 5.31882C52.8606 5.31882 52.673 5.35644 52.5121 5.43702C52.3459 5.51759 52.2011 5.61962 52.0671 5.74854C51.9438 5.8882 51.8473 6.04398 51.7722 6.22124C51.6972 6.3985 51.6543 6.5865 51.6543 6.79062C51.6543 6.99473 51.6918 7.17201 51.7722 7.3439C51.8473 7.51579 51.9492 7.67156 52.0671 7.81122C52.2011 7.93476 52.3513 8.0422 52.5121 8.12278C52.6783 8.20335 52.8553 8.24093 53.0483 8.24093C53.2413 8.24093 53.4128 8.20335 53.579 8.12278C53.7452 8.0422 53.8954 7.94013 54.0294 7.81122C54.1474 7.67156 54.2492 7.51579 54.3243 7.3439C54.3994 7.17201 54.4422 6.98936 54.4422 6.79062ZM50.9734 10.078H58.029V13.5426H56.9246V11.1093H50.9734V10.0834V10.078ZM55.5145 6.7799C55.5145 7.1183 55.4502 7.42983 55.3215 7.73063C55.1928 8.02607 55.0159 8.2839 54.7907 8.50413C54.5656 8.72974 54.2975 8.90699 53.9972 9.03591C53.697 9.16482 53.3753 9.22931 53.0429 9.22931C52.7105 9.22931 52.3781 9.16482 52.0778 9.03591C51.7776 8.90699 51.5149 8.72974 51.2951 8.50413C51.0699 8.28927 50.8876 8.03144 50.7589 7.73063C50.6302 7.4352 50.5605 7.1183 50.5605 6.7799C50.5605 6.44149 50.6249 6.11918 50.7589 5.81837C50.8876 5.52294 51.0699 5.2651 51.2951 5.04487C51.5149 4.81927 51.7776 4.64201 52.0778 4.5131C52.3781 4.38418 52.6998 4.31973 53.0429 4.31973C53.386 4.31973 53.697 4.38418 53.9972 4.5131C54.2975 4.64201 54.5656 4.81927 54.7907 5.04487C55.0159 5.25973 55.1982 5.51757 55.3215 5.81837C55.4502 6.11381 55.5145 6.43612 55.5145 6.7799Z" fill="#E7372F"/>
<path d="M66.7824 4.26058H67.8869V11.4101H66.7824V7.95619H65.5386V6.94634H66.7824V4.26058ZM64.1982 6.31785C64.1982 5.98481 64.0802 5.70012 63.8497 5.47452C63.6192 5.24891 63.3457 5.13614 63.0294 5.13614C62.7131 5.13614 62.4396 5.24891 62.2091 5.47452C61.9786 5.70012 61.8606 5.98481 61.8606 6.31785C61.8606 6.65088 61.9786 6.92486 62.2091 7.15046C62.4396 7.37606 62.7131 7.48884 63.0294 7.48884C63.3457 7.48884 63.6192 7.37606 63.8497 7.15046C64.0802 6.92486 64.1982 6.64551 64.1982 6.31785ZM65.2705 6.31785C65.2705 6.61865 65.2115 6.89797 65.0882 7.1558C64.9702 7.41364 64.8094 7.64463 64.6164 7.84875C64.4073 8.0475 64.1714 8.19789 63.898 8.3107C63.6245 8.4235 63.335 8.47721 63.0294 8.47721C62.7238 8.47721 62.4289 8.4235 62.1609 8.3107C61.8874 8.19789 61.6515 8.0475 61.4424 7.84875C61.2494 7.64463 61.0886 7.41364 60.9706 7.1558C60.8527 6.89797 60.7883 6.61865 60.7883 6.31785C60.7883 6.01704 60.8473 5.73772 60.9706 5.47452C61.0886 5.21131 61.2494 4.98034 61.4424 4.77622C61.6515 4.58285 61.8874 4.42708 62.1609 4.31428C62.4343 4.20148 62.7238 4.14777 63.0294 4.14777C63.335 4.14777 63.6299 4.20148 63.898 4.31428C64.1714 4.42708 64.4073 4.58285 64.6164 4.77622C64.8094 4.98034 64.9702 5.21131 65.0882 5.47452C65.2061 5.73772 65.2705 6.01704 65.2705 6.31785ZM60.7186 13.4673V10.7923H61.8231V12.4521H67.9941V13.4673H60.7186ZM66.064 9.88455H63.6942V11.3026H62.579V9.88455H60.1074V8.8586H66.064V9.88455Z" fill="#E7372F"/>
<path d="M76.8296 3.07352H76.2285V14.9553H76.8296V3.07352Z" fill="#E7372F"/>
<path d="M100.848 13.5479C100.848 13.5479 100.848 13.5157 100.848 13.4996C100.848 11.3671 100.848 9.22923 100.848 7.09674C100.848 6.45216 101.078 5.88816 101.496 5.39935C101.861 4.975 102.317 4.69031 102.864 4.55602C103.003 4.52379 103.148 4.50767 103.287 4.48619C103.351 4.47544 103.416 4.47543 103.475 4.47543C103.646 4.47543 103.818 4.49156 103.989 4.51841C104.392 4.58824 104.756 4.74402 105.083 4.98573C105.652 5.40471 106.005 5.96335 106.139 6.66165C106.166 6.81205 106.182 6.97319 106.182 7.12897C106.182 9.25072 106.182 11.3725 106.182 13.4942C106.182 13.5157 106.182 13.5318 106.182 13.5533C105.748 13.5533 105.319 13.5533 104.885 13.5533C104.869 13.5533 104.853 13.5587 104.831 13.564H104.815C104.815 13.564 104.815 13.5372 104.815 13.5265V8.08511C104.815 7.96694 104.799 7.84875 104.762 7.73057C104.676 7.45125 104.515 7.22567 104.279 7.04841C104.043 6.87652 103.775 6.80131 103.486 6.80131C103.416 6.80131 103.341 6.81205 103.271 6.82816C102.687 6.93022 102.209 7.45663 102.209 8.10659C102.209 9.69119 102.209 11.2758 102.209 12.8604C102.209 13.0967 102.209 13.3331 102.209 13.5694H102.193C102.193 13.5694 102.161 13.5587 102.14 13.5587C101.711 13.5587 101.277 13.5587 100.848 13.5587" fill="#E7372F"/>
<path d="M106.574 13.548C106.574 13.548 106.574 13.5157 106.574 13.505V4.47546H108.745V5.83985C108.59 5.83985 108.445 5.88282 108.311 5.96876C108.139 6.08156 108.021 6.23733 107.968 6.43071C107.946 6.50591 107.936 6.58648 107.936 6.66168C107.936 8.95532 107.936 11.2436 107.936 13.5372C107.936 13.5426 107.936 13.5534 107.936 13.5587H107.919C107.919 13.5587 107.887 13.548 107.866 13.548C107.432 13.548 107.003 13.548 106.568 13.548" fill="#E7372F"/>
<path d="M85.0801 10.4647C85.0801 10.4647 85.1176 10.4647 85.139 10.4647C87.4927 10.4647 89.841 10.4647 92.1947 10.4647H92.2591V13.5533H90.8919C90.8919 13.5103 90.8919 13.4727 90.8812 13.4297C90.8704 13.3438 90.8704 13.2632 90.849 13.1773C90.6721 12.3877 89.9858 11.829 89.1709 11.829C87.8251 11.829 86.4794 11.829 85.1337 11.829C85.1176 11.829 85.0962 11.829 85.0801 11.829V10.4593V10.4647Z" fill="#E7372F"/>
<path d="M98.4907 13.5587C98.4907 12.7906 97.9813 12.0869 97.1932 11.8881C97.0485 11.8505 96.9037 11.8344 96.7589 11.8344C95.4507 11.8344 94.1426 11.8344 92.8344 11.8344C92.8183 11.8344 92.7968 11.8344 92.7808 11.8344C92.7808 11.8344 92.7808 11.8291 92.7754 11.8237C92.7754 11.4101 92.7754 10.9965 92.7754 10.5829V10.4754H99.8579C99.8579 10.4754 99.8579 10.497 99.8579 10.5077V13.5318C99.8579 13.5318 99.8579 13.548 99.8579 13.5533C99.429 13.5533 98.9947 13.5533 98.5657 13.5533C98.5497 13.5533 98.5336 13.5587 98.5121 13.5641H98.496L98.4907 13.5587Z" fill="#E7372F"/>
<path d="M109.219 13.548C109.219 13.548 109.219 13.5157 109.219 13.4996C109.219 12.5059 109.219 11.5122 109.219 10.5238V10.4701H110.586C110.586 10.5399 110.586 10.6097 110.586 10.6796C110.618 11.2704 110.902 11.7055 111.406 12.001C111.54 12.0815 111.69 12.1245 111.841 12.1621C111.921 12.1836 112.007 12.189 112.093 12.189C113.503 12.189 114.913 12.189 116.328 12.189C116.344 12.189 116.366 12.189 116.382 12.189C116.382 12.189 116.382 12.1943 116.387 12.1943C116.387 12.5112 116.387 12.8336 116.387 13.1505C116.387 13.2848 116.387 13.4191 116.387 13.5533H116.371C116.371 13.5533 116.339 13.5426 116.317 13.5426C113.953 13.5426 111.583 13.5426 109.219 13.5426" fill="#E7372F"/>
<path d="M85.0801 4.47004H92.1947C92.1947 4.47004 92.2322 4.47004 92.2483 4.47004C92.2483 4.47004 92.2483 4.47004 92.2537 4.47541C92.2537 4.48615 92.2537 4.4969 92.2537 4.50764V7.53719C92.2537 7.53719 92.2537 7.55867 92.2537 7.56941C92.2537 7.56941 92.2537 7.5748 92.2483 7.58017C92.2376 7.58017 92.2269 7.58017 92.2162 7.58017C91.7819 7.58017 91.353 7.58017 90.9187 7.58017H90.8919C90.8919 7.58017 90.8919 7.5533 90.8919 7.53719C90.8919 7.40827 90.8919 7.27399 90.8919 7.14507C90.8811 6.55421 90.4844 6.01168 89.8464 5.86665C89.7499 5.84516 89.648 5.83442 89.5462 5.83442C88.0771 5.83442 86.6027 5.83442 85.1337 5.83442C85.1176 5.83442 85.0962 5.83442 85.0801 5.83442V4.46469V4.47004Z" fill="#E7372F"/>
<path d="M85.0801 7.90244C85.0801 7.90244 85.1123 7.90244 85.123 7.90244H92.2537V9.27217H92.2001C90.5487 9.27217 88.892 9.27217 87.2407 9.27217C86.8654 9.27217 86.5277 9.53538 86.458 9.91676C86.4473 9.95973 86.4472 10.0081 86.4419 10.0564H85.0801V7.90781V7.90244Z" fill="#E7372F"/>
<path d="M113.84 4.47543V5.83982C113.808 5.83982 113.776 5.83982 113.744 5.83982C113.642 5.83982 113.54 5.8398 113.444 5.85054C113.283 5.8774 113.186 5.97947 113.138 6.13525C113.095 6.28028 113.138 6.40917 113.235 6.5166C113.508 6.82278 113.696 7.17732 113.787 7.58019C113.808 7.68762 113.83 7.79504 113.83 7.90247C113.84 8.61688 113.846 9.33129 113.851 10.0511H112.479V10.0027C112.479 9.36891 112.479 8.73504 112.479 8.09583C112.479 7.6124 112.141 7.22567 111.696 7.1451C111.192 7.05378 110.715 7.37606 110.602 7.87562C110.586 7.95619 110.581 8.03677 110.581 8.11734C110.581 8.74044 110.581 9.3689 110.581 9.992V10.0457H109.219V9.992C109.219 9.34204 109.219 8.69208 109.219 8.04213C109.219 7.49961 109.406 7.02154 109.75 6.59719C109.776 6.56496 109.803 6.53274 109.83 6.50588C109.932 6.38771 109.959 6.24805 109.91 6.09764C109.862 5.95261 109.75 5.86131 109.599 5.83982C109.519 5.82908 109.439 5.83982 109.358 5.83982C109.315 5.83982 109.272 5.83982 109.229 5.83982V4.47543H113.851H113.84Z" fill="#E7372F"/>
<path d="M93.4691 7.29546C93.4798 7.3438 93.4906 7.44048 93.5174 7.52643C93.5925 7.78426 93.764 7.97764 93.9731 8.13341C94.3377 8.39662 94.7505 8.50941 95.1902 8.5309C95.3671 8.54164 95.5494 8.53093 95.7263 8.52556C95.855 8.52556 95.9783 8.51479 96.107 8.49867C96.4233 8.4557 96.7128 8.34827 96.9755 8.16564C97.2382 7.98301 97.442 7.75206 97.5009 7.41902C97.5224 7.29548 97.5224 7.17193 97.4902 7.04839C97.4312 6.80667 97.2919 6.61328 97.1096 6.4575C96.745 6.14595 96.3054 6.02242 95.8389 5.99556C95.6566 5.98482 95.4797 5.99556 95.2974 5.99556C95.0829 5.99556 94.8738 6.01705 94.6648 6.07077C94.3323 6.15671 94.0321 6.30172 93.7908 6.54881C93.5978 6.74755 93.4798 6.97855 93.4691 7.30621M98.1336 7.26323V8.07971C98.1336 9.00898 97.4902 9.79861 96.6002 10.0027C96.4984 10.0242 96.3965 10.0403 96.2946 10.0403C95.8014 10.0457 95.3027 10.0564 94.8095 10.0511C93.898 10.0403 93.1153 9.4011 92.9115 8.50943C92.8794 8.3644 92.8633 8.21936 92.8633 8.06896C92.8633 7.52643 92.8633 6.98393 92.8633 6.4414C92.8633 5.5551 93.4638 4.78159 94.3002 4.54524C94.4717 4.4969 94.6487 4.47003 94.831 4.47003C95.2813 4.47003 95.737 4.47003 96.1874 4.47003C96.6967 4.4754 97.1417 4.65803 97.5117 5.00718C97.8119 5.2865 97.9996 5.63029 98.0854 6.02779C98.1014 6.10836 98.1175 6.19429 98.1175 6.28023C98.1175 6.60789 98.1175 6.93019 98.1175 7.25785H98.1282" fill="#E7372F"/>
<path d="M116.386 4.48081C116.386 4.48081 116.386 4.51305 116.386 4.52917V11.6411C116.386 11.6411 116.365 11.6411 116.354 11.6411H115.046C115.046 11.6411 115.035 11.6411 115.03 11.6411C115.03 11.6411 115.03 11.6411 115.024 11.6357C115.024 11.6196 115.024 11.5981 115.024 11.582C115.024 9.94366 115.024 8.31071 115.024 6.6724C115.024 6.26954 114.783 5.95798 114.413 5.86129C114.349 5.84518 114.285 5.83981 114.215 5.82907V4.47543C114.215 4.47543 114.231 4.47543 114.242 4.47543H116.365C116.365 4.47543 116.376 4.47543 116.381 4.47543C116.381 4.47543 116.381 4.47544 116.386 4.48081Z" fill="#E7372F"/>
<path d="M98.4922 10.0403C98.4922 10.0403 98.4922 10.0135 98.4922 9.99735V4.51839C98.4922 4.51839 98.4922 4.49153 98.4922 4.47541H98.4976C98.4976 4.47541 98.5083 4.46469 98.5137 4.46469H100.642C100.642 4.46469 100.658 4.46469 100.669 4.46469V5.81829C100.589 5.83441 100.508 5.83979 100.428 5.86665C100.144 5.95797 99.9559 6.15134 99.8808 6.44141C99.8647 6.50587 99.854 6.5757 99.854 6.64553C99.854 7.75743 99.854 8.87469 99.854 9.9866V10.0403C99.854 10.0403 99.8379 10.0403 99.8325 10.0403H98.519C98.519 10.0403 98.5083 10.0403 98.5029 10.0403C98.5029 10.0403 98.5029 10.0403 98.4976 10.035" fill="#E7372F"/>
</svg>
