<svg width="34" height="35" viewBox="0 0 34 35" fill="none" xmlns="http://www.w3.org/2000/svg">
<path fill-rule="evenodd" clip-rule="evenodd" d="M14.7499 22.9001C14.5199 22.9001 14.2899 22.8101 14.1099 22.6401C13.9419 22.4715 13.8477 22.2431 13.8477 22.0051C13.8477 21.7671 13.9419 21.5388 14.1099 21.3701L17.9799 17.5001L14.1099 13.6401C13.9419 13.4715 13.8477 13.2431 13.8477 13.0051C13.8477 12.7671 13.9419 12.5388 14.1099 12.3701C14.2785 12.2022 14.5069 12.1079 14.7449 12.1079C14.9829 12.1079 15.2112 12.2022 15.3799 12.3701L19.8799 16.8701C20.0478 17.0388 20.1421 17.2671 20.1421 17.5051C20.1421 17.7431 20.0478 17.9715 19.8799 18.1401L15.3799 22.6401C15.2099 22.8101 14.9799 22.9001 14.7499 22.9001Z" fill="white"/>
</svg>
