<svg width="34" height="34" viewBox="0 0 34 34" fill="none" xmlns="http://www.w3.org/2000/svg">
<path fill-rule="evenodd" clip-rule="evenodd" d="M22.4 19.2499C22.4 19.4799 22.31 19.7099 22.14 19.8899C21.9713 20.0578 21.743 20.1521 21.505 20.1521C21.267 20.1521 21.0387 20.0578 20.87 19.8899L17 16.0199L13.14 19.8899C12.9713 20.0578 12.743 20.1521 12.505 20.1521C12.267 20.1521 12.0387 20.0578 11.87 19.8899C11.7021 19.7212 11.6078 19.4929 11.6078 19.2549C11.6078 19.0169 11.7021 18.7886 11.87 18.6199L16.37 14.1199C16.5387 13.952 16.767 13.8577 17.005 13.8577C17.243 13.8577 17.4713 13.952 17.64 14.1199L22.14 18.6199C22.31 18.7899 22.4 19.0199 22.4 19.2499" fill="white"/>
</svg>
