<svg width="19" height="750" viewBox="0 0 19 750" fill="none" xmlns="http://www.w3.org/2000/svg">
<path d="M9.49203 14.32C12.8941 14.32 15.652 11.5621 15.652 8.16C15.652 4.75793 12.8941 2 9.49203 2C6.08996 2 3.33203 4.75793 3.33203 8.16C3.33203 11.5621 6.08996 14.32 9.49203 14.32Z" fill="#FBC91B" stroke="#E7372F" stroke-width="3.8" stroke-miterlimit="10"/>
<path d="M9.47203 24.32L15.622 26.44V81.16L9.47203 83.28L3.33203 81.16V26.44L9.47203 24.32Z" fill="#E7372F" stroke="#2E80C3" stroke-width="3.8" stroke-miterlimit="10"/>
<path d="M9.56164 93.28L3.33203 99.5096L9.56164 105.739L15.7913 99.5096L9.56164 93.28Z" fill="#FBC91B" stroke="#E7372F" stroke-width="3.8" stroke-miterlimit="10"/>
<path d="M9.47203 115.739L15.622 117.859V172.589L9.47203 174.699L3.33203 172.589V117.859L9.47203 115.739Z" fill="#E7372F" stroke="#2E80C3" stroke-width="3.8" stroke-miterlimit="10"/>
<path d="M9.49203 197.019C12.8941 197.019 15.652 194.261 15.652 190.859C15.652 187.457 12.8941 184.699 9.49203 184.699C6.08996 184.699 3.33203 187.457 3.33203 190.859C3.33203 194.261 6.08996 197.019 9.49203 197.019Z" fill="#FBC91B" stroke="#E7372F" stroke-width="3.8" stroke-miterlimit="10"/>
<path d="M9.48203 207.019L15.642 209.139V263.919L9.48203 266.039L3.33203 263.919V209.139L9.48203 207.019Z" fill="#E7372F" stroke="#2E80C3" stroke-width="3.8" stroke-miterlimit="10"/>
<path d="M9.56164 276.039L3.33203 282.269L9.56164 288.498L15.7913 282.269L9.56164 276.039Z" fill="#FBC91B" stroke="#E7372F" stroke-width="3.8" stroke-miterlimit="10"/>
<path d="M9.47203 298.498L15.622 300.618V355.338L9.47203 357.458L3.33203 355.338V300.618L9.47203 298.498Z" fill="#E7372F" stroke="#2E80C3" stroke-width="3.8" stroke-miterlimit="10"/>
<path d="M9.49203 382.306C12.8941 382.306 15.652 379.548 15.652 376.146C15.652 372.744 12.8941 369.986 9.49203 369.986C6.08996 369.986 3.33203 372.744 3.33203 376.146C3.33203 379.548 6.08996 382.306 9.49203 382.306Z" fill="#FBC91B" stroke="#E7372F" stroke-width="3.8" stroke-miterlimit="10"/>
<path d="M9.47203 392.306L15.622 394.426V449.146L9.47203 451.266L3.33203 449.146V394.426L9.47203 392.306Z" fill="#E7372F" stroke="#2E80C3" stroke-width="3.8" stroke-miterlimit="10"/>
<path d="M9.56164 461.266L3.33203 467.496L9.56164 473.726L15.7913 467.496L9.56164 461.266Z" fill="#FBC91B" stroke="#E7372F" stroke-width="3.8" stroke-miterlimit="10"/>
<path d="M9.47203 483.726L15.622 485.846V540.576L9.47203 542.686L3.33203 540.576V485.846L9.47203 483.726Z" fill="#E7372F" stroke="#2E80C3" stroke-width="3.8" stroke-miterlimit="10"/>
<path d="M9.49203 565.006C12.8941 565.006 15.652 562.248 15.652 558.846C15.652 555.443 12.8941 552.686 9.49203 552.686C6.08996 552.686 3.33203 555.443 3.33203 558.846C3.33203 562.248 6.08996 565.006 9.49203 565.006Z" fill="#FBC91B" stroke="#E7372F" stroke-width="3.8" stroke-miterlimit="10"/>
<path d="M9.48203 575.006L15.642 577.126V631.906L9.48203 634.026L3.33203 631.906V577.126L9.48203 575.006Z" fill="#E7372F" stroke="#2E80C3" stroke-width="3.8" stroke-miterlimit="10"/>
<path d="M9.56164 644.026L3.33203 650.255L9.56164 656.485L15.7913 650.255L9.56164 644.026Z" fill="#FBC91B" stroke="#E7372F" stroke-width="3.8" stroke-miterlimit="10"/>
<path d="M9.47203 666.485L15.622 668.605V723.325L9.47203 725.445L3.33203 723.325V668.605L9.47203 666.485Z" fill="#E7372F" stroke="#2E80C3" stroke-width="3.8" stroke-miterlimit="10"/>
<path d="M9.49203 747.765C12.8941 747.765 15.652 745.007 15.652 741.605C15.652 738.203 12.8941 735.445 9.49203 735.445C6.08996 735.445 3.33203 738.203 3.33203 741.605C3.33203 745.007 6.08996 747.765 9.49203 747.765Z" fill="#FBC91B" stroke="#E7372F" stroke-width="3.8" stroke-miterlimit="10"/>
</svg>
