<svg width="59" height="22" viewBox="0 0 59 22" fill="none" xmlns="http://www.w3.org/2000/svg">
<path d="M48.7174 5.49154C49.2771 5.81406 49.4667 6.21724 49.4667 7.41776V11.091C49.4667 11.2791 49.3403 11.4583 49.1417 11.4762C46.9929 11.7718 45.2504 12.9455 45.2504 15.1942C45.2504 17.2906 46.9116 18.6524 49.4487 18.6524C51.9857 18.6524 53.5837 17.2817 53.6018 15.1942C53.6198 13.5099 52.8073 12.5423 51.5162 12.5423C50.4418 12.5423 49.8188 13.2232 49.8188 14.361V17.0129C49.8188 17.6131 48.916 17.6131 48.916 17.0129V14.4685C48.916 12.4796 50.3605 11.4762 52.5725 11.7987C52.8975 11.8435 53.1323 11.5837 53.1323 11.306V9.02141H54.5137C55.0915 9.02141 55.0915 8.03593 54.5137 8.03593H53.1323V4.04017C53.1323 3.3772 52.4822 3.14429 52.0127 3.50265C51.1731 4.13874 50.18 4.55085 48.7806 4.78379C48.5187 4.82858 48.4555 5.33923 48.7174 5.49154Z" fill="black"/>
<path d="M54.1632 14.245C54.0368 14.3346 54.0097 14.4331 54.0097 14.5227C54.0097 14.6302 54.0549 14.7198 54.1813 14.7825C54.6778 15.0603 55.039 15.5889 55.039 16.5385C55.039 18.2049 53.6395 19.7817 50.1545 19.7817C47.5092 19.7817 45.0353 19.289 40.6204 18.3751C40.4037 18.3303 40.3405 18.6977 40.5572 18.7335C44.5839 19.6563 48.719 20.6597 51.9693 20.6597C56.2307 20.6597 58.4879 19.0381 58.4879 16.6908C58.4879 13.9583 55.6258 13.2774 54.1632 14.254" fill="black"/>
<path d="M7.10546 9.20095C7.10546 9.60411 6.91587 9.84597 6.5457 9.84597C6.17553 9.84597 5.98593 9.61306 5.98593 9.20095V4.58701C5.98593 4.18385 6.17553 3.95095 6.5457 3.95095C6.91587 3.95095 7.10546 4.18385 7.10546 4.58701V9.20095ZM20.7386 5.83233C21.0817 5.83233 21.2803 6.09214 21.2803 6.45051V8.33189C21.2803 8.5917 21.3074 8.83364 21.3435 9.04866C21.0636 9.37118 20.7837 9.55036 20.4587 9.55036C20.0073 9.55036 19.8357 9.31743 19.8357 8.82468V5.83233H20.7386ZM23.6006 14.2449C22.436 14.2449 21.5783 15.0602 21.5783 16.3144V18.4736C21.5783 19.1365 20.6122 19.1365 20.6122 18.4736V16.637C20.6122 14.8183 21.3435 13.8148 22.9596 13.5371C23.1943 13.4923 23.3027 13.3042 23.3027 13.0713V12.4262H27.3746C27.9524 12.4262 27.9524 11.4407 27.3746 11.4407H13.6241C12.5497 11.4407 11.9267 12.1216 11.9267 13.2594V15.9113C11.9267 16.5115 11.0239 16.5115 11.0239 15.9113V13.3669C11.0239 11.4228 11.8816 10.6344 13.9491 10.6344H14.6804C15.0055 10.6344 15.2402 10.4194 15.2402 10.1416V5.83233H15.6465C15.9896 5.83233 16.1882 6.09214 16.1882 6.45051V8.33189C16.1882 10.1237 17.1994 10.8763 18.9871 10.8763C20.1427 10.8763 21.0636 10.509 21.6956 9.91766C22.1471 10.5806 22.9596 10.8763 24.0882 10.8763C25.7043 10.8763 26.869 10.1506 27.4197 9.10241C27.6544 8.65446 27.0134 8.25126 26.7335 8.67234C26.3724 9.2278 26.0022 9.55036 25.5689 9.55036C25.1355 9.55036 24.9459 9.31743 24.9459 8.82468V5.70689C26.7516 5.68001 27.7628 4.90954 27.7628 3.52984C27.7628 2.65185 27.2211 1.95304 26.3002 1.95304C25.6501 1.95304 25.1806 2.38307 25.1806 2.95645C25.1806 3.42232 25.5237 3.74485 25.9752 3.74485C26.237 3.74485 26.4085 3.68213 26.58 3.51191C26.7696 3.32377 27.1398 3.42233 27.1398 3.80757C27.1398 4.30928 26.6252 4.71246 24.9459 4.73038V3.95986C24.9459 3.5567 24.5125 3.31486 24.1514 3.61947C23.1853 4.40786 21.9936 4.85577 20.2781 4.85577H19.8447V3.95986C19.8447 3.5567 19.4114 3.31486 19.0503 3.61947C18.0932 4.3989 16.9285 4.84681 15.2402 4.85577V2.01576C15.2402 1.35279 14.5901 1.11987 14.1207 1.47824C13.281 2.12329 12.2879 2.52644 10.8884 2.75938C10.6266 2.80417 10.5634 3.31482 10.8252 3.46712C11.385 3.78965 11.5746 4.19283 11.5746 5.39334V6.39675H10.753C10.5363 4.16595 8.92021 2.72356 6.55473 2.72356C4.01771 2.72356 2.33842 4.38993 2.33842 6.90743C2.33842 9.42493 4.01771 11.0913 6.55473 11.0913C8.92021 11.0913 10.5363 9.64891 10.753 7.4181H11.5746V10.0072C11.5746 10.2043 11.4482 10.3746 11.2496 10.3925C9.1008 10.6882 7.35829 11.8618 7.35829 14.1105C7.35829 16.2069 9.01951 17.5687 11.5565 17.5687C11.7461 17.5687 11.9357 17.5687 12.1163 17.5418L12.0892 17.5687C10.437 19.1455 7.70135 20.0235 5.13725 20.0235C2.74468 20.0235 0.76746 19.0022 0.76746 17.0581C0.76746 15.9651 1.54392 15.096 2.74471 15.096C3.94551 15.096 3.99063 16.1442 5.26366 16.1442C6.10331 16.1442 6.645 15.5261 6.645 14.7556C6.645 13.6267 5.65185 12.8114 4.04477 12.8114C1.86889 12.8114 0 14.4599 0 16.5742C0 19.2172 2.39259 20.4356 5.44424 20.4356C10.3106 20.4356 15.7097 17.8464 15.7097 14.1105C15.7097 13.4296 15.5201 12.8742 15.1679 12.4441H19.4295V13.0175C19.4295 13.1877 19.3211 13.3131 19.1496 13.3758C17.6237 13.9313 16.6758 15.1498 16.6758 16.7534C16.6758 18.9126 18.4815 20.3191 21.2352 20.3191C23.9889 20.3191 25.7765 18.9126 25.7765 16.7534C25.7765 15.32 24.982 14.2539 23.6006 14.2539" fill="black"/>
<path d="M44.6458 15.7411V8.43943C44.6458 7.83917 45.5938 7.83917 45.5938 8.43943V11.8528C45.5938 12.0858 45.8285 12.1933 46.0272 12.0231C46.6953 11.4676 47.5981 11.1272 48.4558 10.9301C48.6725 10.8853 48.7809 10.7151 48.7809 10.4821V8.00044C48.7809 6.78201 48.0315 6.07427 46.7314 6.07427C45.982 6.07427 45.1785 6.47744 44.7271 7.0329V6.02943C44.7271 5.28583 45.0521 5.04396 45.4403 5.04396C45.7202 5.04396 45.9369 5.19626 46.0633 5.42919C46.1716 5.61733 46.6231 5.51881 46.6231 5.23212C46.6231 4.38101 45.7383 3.61053 44.4291 3.61053C43.12 3.61053 41.9914 4.21077 41.549 5.72486H40.1767C40.3392 4.37204 41.1157 3.77177 41.1157 2.40999C41.1157 0.958622 39.8245 0 37.8473 0C35.87 0 34.579 0.958622 34.579 2.40999C34.579 3.15359 35.0124 3.58363 35.6353 3.58363C36.0416 3.58363 36.4299 3.28798 36.4299 2.85794C36.4299 2.38311 36.0687 2.23977 36.0687 1.79181C36.0687 1.38866 36.4118 1.11092 36.8181 1.11092C37.2695 1.11092 37.6126 1.43345 37.6126 2.06954C37.6126 3.50299 36.5382 4.05846 36.5111 6.11009L36.493 8.34986V8.84259C36.493 9.03969 36.3666 9.20991 36.168 9.22783C34.0102 9.52348 32.2677 10.6971 32.2677 12.9459C32.2677 15.0423 33.9289 16.404 36.466 16.404C39.003 16.404 40.601 15.0333 40.6191 12.9459C40.6371 11.2616 39.8246 10.294 38.5335 10.294C37.4591 10.294 36.8361 10.9749 36.8361 12.1127V14.7645C36.8361 15.3648 35.9332 15.3648 35.9332 14.7645V12.2202C35.9332 10.2313 37.3779 9.22787 39.5898 9.5504C39.9149 9.59519 40.1496 9.33533 40.1496 9.0576V6.7462H41.3684C41.3504 6.97914 41.3324 7.22995 41.3324 7.48977V13.6446C41.3324 15.6963 40.5559 16.6549 39.3731 17.7658C38.1723 18.8947 34.4255 20.3729 32.6559 20.3729C31.5183 20.3729 30.805 19.8354 30.805 19.029C30.805 17.9181 31.8794 17.515 33.1073 17.515C34.4435 17.515 36.3576 17.8106 38.1452 18.1331C38.38 18.1779 38.4703 17.8375 38.2356 17.7658C35.0304 17.0402 32.0329 16.3593 30.1189 16.3593C28.2048 16.3593 26.7422 17.282 26.7422 18.8768C26.7422 20.4715 28.268 21.3584 30.1189 21.3584C36.5291 21.3584 40.1947 17.1745 44.068 16.3413C44.4111 16.2786 44.6458 16.1084 44.6458 15.7232" fill="black"/>
<path d="M28.5671 15.5888C30.6075 15.5888 31.6638 14.5854 31.6638 12.1485V6.20865C31.6638 5.6084 32.6118 5.6084 32.6118 6.20865V9.62206C32.6118 9.85499 32.8466 9.9625 33.0452 9.79228C33.7133 9.23682 34.6162 8.8964 35.4739 8.6993C35.6906 8.65451 35.7989 8.48428 35.7989 8.25135V5.76967C35.7989 4.55124 35.0495 3.8435 33.7585 3.8435C33.0091 3.8435 32.2055 4.24661 31.7541 4.80207V3.79866C31.7541 3.05506 32.0792 2.81319 32.4674 2.81319C32.7473 2.81319 32.964 2.96549 33.0904 3.19842C33.1987 3.39552 33.6501 3.28799 33.6501 3.01026C33.6501 2.15915 32.7653 1.38867 31.4562 1.38867C29.6505 1.38867 28.3594 2.43691 28.3594 5.27693V13.5193C28.3594 14.3704 28.1878 14.8004 27.8177 14.8004C27.6281 14.8004 27.4927 14.6929 27.4927 14.5227C27.4927 14.2898 27.6823 14.2002 27.6823 13.9045C27.6823 13.6089 27.4656 13.3938 27.1405 13.3938C26.7523 13.3938 26.4543 13.6537 26.4543 14.1195C26.4543 14.8273 27.2489 15.5709 28.5671 15.5709" fill="black"/>
</svg>
