<svg width="90" height="24" viewBox="0 0 90 24" fill="none" xmlns="http://www.w3.org/2000/svg">
<path d="M6.51793 4.68531C8.2963 3.1012 10.604 2.13266 13.1433 2.10804C15.2526 2.09162 17.2129 2.73187 18.8507 3.83993C16.8573 2.06704 14.26 1 11.4229 1C5.11177 1 0 6.28585 0 12.8111C0 14.584 0.380454 16.2583 1.05044 17.7686C2.58894 21.2241 5.97198 23.629 9.89266 23.629C13.8133 23.629 17.1799 21.1174 18.5612 17.5716C18.8176 16.915 18.9499 16.2009 18.9499 15.454C18.9499 13.1394 17.1302 11.2598 14.8969 11.2598C13.4577 11.2598 12.1922 12.0395 11.4725 13.205C10.7529 14.3788 9.48738 15.1503 8.04814 15.1503C6.6089 15.1503 5.23581 14.3213 4.50792 12.9998C4.23496 12.5074 4.07782 11.9739 4.01165 11.3501C3.98683 11.0956 3.97029 10.8166 3.96202 10.5293C3.94548 8.19825 4.93808 6.09705 6.51793 4.68531Z" fill="black"/>
<path d="M13.2593 2.71533C18.1312 2.71533 22.846 6.64686 22.846 12.7945C22.846 17.9162 19.7028 22.291 15.2941 23.9325C18.7185 22.1761 21.0676 18.5236 21.0676 14.3048C21.0676 8.92865 16.8491 4.56209 11.6463 4.56209C9.3965 4.56209 7.33693 5.43211 5.78189 6.86028C5.59992 7.02443 5.4345 7.20502 5.27734 7.38559C5.69919 6.49093 6.29473 5.70297 7.03089 5.06276C8.71001 3.59356 10.8854 2.71533 13.2593 2.71533Z" fill="black"/>
<path d="M38.3129 6.64689V10.2009H36.8736V7.95195H29.4127V6.63867H38.3129V6.64689ZM33.168 14.2063V12.4663H28.5939V11.153H39.1979V12.4663H34.6072V14.2063H38.3459V18.3676H36.9067V15.5031H29.3135V14.2063H33.168Z" fill="black"/>
<path d="M49.3384 6.40918H50.7694V13.0739H49.3384V6.40918ZM49.3716 15.6676H43.1514V16.8742H49.3716V15.6676ZM41.7369 13.4679H43.1431V14.4611H49.3633V13.4679H50.7694V18.0971H41.7287V13.4679H41.7369ZM47.3119 12.8441H41.0918V9.20803H45.7569V8.01788H41.0918V6.76211H47.1796V10.4146H42.5145V11.6211H47.3119V12.8523V12.8441Z" fill="black"/>
<path d="M62.4651 6.64689V10.2009H61.0259V7.95195H53.565V6.63867H62.4651V6.64689ZM57.3202 14.2063V12.4663H52.7461V11.153H63.3501V12.4663H58.7595V14.2063H62.4982V18.3676H61.059V15.5031H53.4657V14.2063H57.3202Z" fill="black"/>
<path d="M74.172 13.1067H72.7493V6.40918H74.172V8.87969H75.8263V10.3489H74.172V13.1067ZM69.5565 9.63485C69.5565 9.38041 69.5069 9.13417 69.4076 8.91256C69.3084 8.69095 69.1843 8.48572 69.0271 8.31335C68.8534 8.1492 68.6632 8.01789 68.4482 7.91939C68.2331 7.81269 68.0015 7.76344 67.7616 7.76344C67.5217 7.76344 67.2818 7.81269 67.0668 7.91939C66.86 8.02609 66.6615 8.1492 66.496 8.31335C66.3389 8.49392 66.2148 8.69095 66.1156 8.91256C66.0163 9.13417 65.9667 9.38041 65.9667 9.63485C65.9667 9.88929 66.0163 10.1191 66.1156 10.3407C66.2148 10.5623 66.3389 10.7593 66.496 10.9317C66.6697 11.0958 66.86 11.2272 67.0668 11.3257C67.2818 11.4324 67.5052 11.4816 67.7616 11.4816C68.018 11.4816 68.2331 11.4324 68.4482 11.3257C68.6632 11.219 68.8534 11.0876 69.0271 10.9317C69.1843 10.7511 69.3084 10.5541 69.4076 10.3407C69.5069 10.1191 69.5565 9.88929 69.5565 9.63485ZM65.0982 13.8208H74.172V18.2366H72.7493V15.1341H65.0899V13.8208H65.0982ZM70.9379 9.61842C70.9379 10.0452 70.8551 10.4474 70.6897 10.8332C70.5243 11.2107 70.301 11.539 70.0032 11.8181C69.7137 12.1054 69.3663 12.327 68.9775 12.4912C68.5887 12.6553 68.1834 12.7374 67.7533 12.7374C67.3232 12.7374 66.9014 12.6553 66.5126 12.4912C66.1238 12.327 65.7847 12.1054 65.5035 11.8181C65.214 11.539 64.9824 11.2107 64.8087 10.8332C64.6433 10.4556 64.5605 10.0534 64.5605 9.61842C64.5605 9.1834 64.6433 8.77302 64.8087 8.39546C64.9741 8.0179 65.2057 7.68958 65.5035 7.41051C65.7847 7.12324 66.1238 6.90162 66.5126 6.73746C66.9014 6.57331 67.3149 6.49124 67.7533 6.49124C68.1917 6.49124 68.597 6.57331 68.9775 6.73746C69.3663 6.90162 69.7054 7.13144 70.0032 7.41051C70.2927 7.68958 70.5243 8.0179 70.6897 8.39546C70.8551 8.77302 70.9379 9.1834 70.9379 9.61842Z" fill="black"/>
<path d="M85.436 6.40902H86.8587V15.5197H85.436V11.1203H83.8313V9.83988H85.436V6.41718V6.40902ZM82.1108 9.02731C82.1108 8.60051 81.962 8.23937 81.6642 7.95209C81.3664 7.66482 81.019 7.51705 80.6137 7.51705C80.2084 7.51705 79.861 7.66482 79.5633 7.95209C79.2655 8.23937 79.1166 8.60051 79.1166 9.02731C79.1166 9.45412 79.2655 9.79884 79.5633 10.0943C79.861 10.3816 80.2084 10.5293 80.6137 10.5293C81.019 10.5293 81.3664 10.3816 81.6642 10.0943C81.962 9.80705 82.1108 9.44591 82.1108 9.02731ZM83.4922 9.02731C83.4922 9.41308 83.4178 9.76601 83.2606 10.0943C83.1034 10.4226 82.9049 10.7181 82.6568 10.9807C82.3921 11.227 82.0778 11.424 81.7304 11.5717C81.383 11.7113 81.0107 11.7851 80.6137 11.7851C80.2167 11.7851 79.8445 11.7113 79.4971 11.5717C79.1497 11.4322 78.8436 11.2352 78.5707 10.9807C78.3225 10.7263 78.1158 10.4308 77.9669 10.0943C77.8097 9.76601 77.7353 9.40487 77.7353 9.02731C77.7353 8.64975 77.8097 8.28861 77.9669 7.95209C78.124 7.61557 78.3225 7.32007 78.5707 7.06563C78.8354 6.8194 79.1497 6.62238 79.4971 6.47464C79.8445 6.33511 80.2167 6.26123 80.6137 6.26123C81.0107 6.26123 81.383 6.33511 81.7304 6.47464C82.0778 6.61418 82.3838 6.81119 82.6568 7.06563C82.9049 7.32828 83.1117 7.62378 83.2606 7.95209C83.4178 8.28861 83.4922 8.64975 83.4922 9.02731ZM77.636 18.138V14.7235H79.0587V16.8411H86.9993V18.138H77.636ZM84.5179 13.5744H81.4657V15.3802H80.0265V13.5744H76.8419V12.2612H84.5096V13.5744H84.5179Z" fill="black"/>
</svg>
