<svg width="44" height="24" viewBox="0 0 44 24" fill="none" xmlns="http://www.w3.org/2000/svg">
<path d="M22.1458 18.6323C22.1458 18.6323 22.1458 18.5875 22.1458 18.5606C22.1458 15.5862 22.1458 12.6208 22.1458 9.64635C22.1458 8.75044 22.4708 7.96204 23.0576 7.29011C23.5723 6.69881 24.2133 6.30461 24.9717 6.11647C25.1703 6.07168 25.3689 6.04481 25.5676 6.01794C25.6578 6.00898 25.7482 6.00896 25.8385 6C26.0822 6 26.326 6.01792 26.5607 6.06272C27.1295 6.15231 27.6351 6.37632 28.0956 6.7078C28.8901 7.29014 29.3957 8.06956 29.5762 9.03714C29.6214 9.25215 29.6304 9.4672 29.6304 9.68222C29.6304 12.6298 29.6304 15.5862 29.6304 18.5338C29.6304 18.5607 29.6304 18.5875 29.6304 18.6144C29.0255 18.6144 28.4206 18.6144 27.8067 18.6144C27.7796 18.6144 27.7615 18.6144 27.7344 18.6233H27.7073C27.7073 18.6233 27.7073 18.5875 27.7073 18.5696V10.9992C27.7073 10.829 27.6803 10.6677 27.6351 10.5064C27.5178 10.1122 27.283 9.79867 26.958 9.55678C26.6239 9.31488 26.2537 9.21632 25.8474 9.20736C25.7481 9.20736 25.6488 9.22531 25.5405 9.24323C24.7189 9.38658 24.0508 10.1212 24.0508 11.0171C24.0508 13.221 24.0508 15.425 24.0508 17.6289C24.0508 17.9604 24.0508 18.2829 24.0508 18.6144H24.0237C24.0237 18.6144 23.9786 18.6054 23.9515 18.6054C23.3466 18.6054 22.7416 18.6054 22.1367 18.6054" fill="black"/>
<path d="M30.1914 18.6321C30.1914 18.6321 30.1914 18.5873 30.1914 18.5694V6.00879H33.2431V7.90811C33.0173 7.90811 32.8187 7.97083 32.6382 8.0873C32.3944 8.2396 32.2319 8.45465 32.1597 8.73238C32.1326 8.83989 32.1145 8.94738 32.1145 9.05489C32.1145 12.2443 32.1145 15.4337 32.1145 18.6142C32.1145 18.6232 32.1145 18.6321 32.1145 18.6411H32.0874C32.0874 18.6411 32.0423 18.6321 32.0152 18.6321C31.4103 18.6321 30.8053 18.6321 30.1914 18.6321Z" fill="black"/>
<path d="M0 14.3408C0 14.3408 0.0541404 14.3408 0.0812261 14.3408C3.38567 14.3408 6.69011 14.3408 9.99455 14.3408H10.0849V18.6412H8.17083C8.17083 18.5874 8.17082 18.5247 8.16179 18.4709C8.15276 18.3545 8.14374 18.238 8.11666 18.1215C7.86386 17.0196 6.89776 16.2401 5.76016 16.2401C3.8732 16.2401 1.97723 16.2401 0.0902634 16.2401C0.0631778 16.2401 0.0360679 16.2401 0.00898226 16.2401V14.3408H0Z" fill="black"/>
<path d="M18.8343 18.6496C18.8343 17.5835 18.121 16.607 17.0105 16.3292C16.8118 16.2755 16.6042 16.2575 16.3965 16.2575C14.5637 16.2575 12.7219 16.2575 10.8891 16.2575C10.8621 16.2575 10.835 16.2575 10.8079 16.2575C10.8079 16.2575 10.8079 16.2575 10.7988 16.2486C10.7988 15.6752 10.7988 15.0929 10.7988 14.5195V14.3672H20.7483C20.7483 14.3672 20.7483 14.3941 20.7483 14.412V18.6138C20.7483 18.6138 20.7483 18.6317 20.7483 18.6496C20.1434 18.6496 19.5385 18.6496 18.9336 18.6496C18.9065 18.6496 18.8884 18.6496 18.8613 18.6586H18.8343V18.6496Z" fill="black"/>
<path d="M33.9022 18.6321C33.9022 18.6321 33.9022 18.5873 33.9022 18.5604C33.9022 17.1807 33.9022 15.801 33.9022 14.4213V14.3496H35.8253C35.8253 14.4482 35.8253 14.5467 35.8253 14.6363C35.8704 15.4516 36.2677 16.0608 36.9809 16.4729C37.1705 16.5804 37.3782 16.6521 37.5858 16.6969C37.7032 16.7238 37.8206 16.7328 37.938 16.7417C39.9242 16.7417 41.9015 16.7417 43.8878 16.7417C43.9149 16.7417 43.9419 16.7417 43.969 16.7417C43.969 16.7417 43.969 16.7417 43.9781 16.7506C43.9781 17.1896 43.9781 17.6376 43.9781 18.0766C43.9781 18.2648 43.9781 18.4529 43.9781 18.641H43.951C43.951 18.641 43.9058 18.6321 43.8788 18.6321C40.5563 18.6321 37.2338 18.6321 33.9113 18.6321" fill="black"/>
<path d="M0 6.00897H9.99455C9.99455 6.00897 10.0488 6.00897 10.0758 6.00897C10.0758 6.00897 10.0758 6.00898 10.0849 6.01794C10.0849 6.03585 10.0849 6.0448 10.0849 6.06272V10.2735C10.0849 10.2735 10.0849 10.3004 10.0849 10.3183C10.0849 10.3183 10.0849 10.3183 10.0758 10.3272C10.0578 10.3272 10.0488 10.3272 10.0307 10.3272C9.42579 10.3272 8.81183 10.3272 8.20692 10.3272H8.17083C8.17083 10.3272 8.17083 10.2914 8.17083 10.2735C8.17083 10.0943 8.17083 9.90618 8.17083 9.727C8.15277 8.90277 7.593 8.15022 6.7082 7.94416C6.57278 7.91728 6.42829 7.89937 6.28383 7.89937C4.2163 7.89937 2.14876 7.89937 0.0812261 7.89937C0.0541404 7.89937 0.0270856 7.89937 0 7.89937V6V6.00897Z" fill="black"/>
<path d="M0 10.7842C0 10.7842 0.0450943 10.7842 0.0631513 10.7842H10.0758V12.6835H9.99455C7.67422 12.6835 5.35392 12.6835 3.03358 12.6835C2.50992 12.6835 2.03138 13.0508 1.93207 13.5794C1.92304 13.6421 1.91405 13.7049 1.91405 13.7765H0V10.7931V10.7842Z" fill="black"/>
<path d="M40.3937 6.00879V7.90811C40.3937 7.90811 40.3034 7.90811 40.2583 7.90811C40.1138 7.90811 39.9694 7.90812 39.834 7.92604C39.6083 7.96188 39.4728 8.10523 39.4096 8.32024C39.3464 8.5263 39.4096 8.70551 39.5451 8.84885C39.9333 9.27889 40.1951 9.76264 40.3215 10.3271C40.3576 10.4704 40.3757 10.6227 40.3847 10.775C40.3937 11.7695 40.4027 12.764 40.4118 13.7674H38.4797V13.6957C38.4797 12.8087 38.4797 11.9307 38.4797 11.0438C38.4797 10.3719 38.0102 9.83433 37.3872 9.72682C36.674 9.6014 36.0058 10.0494 35.8524 10.7482C35.8253 10.8557 35.8163 10.9722 35.8163 11.0886C35.8163 11.9576 35.8163 12.8267 35.8163 13.6957V13.7674H33.9022V13.6957C33.9022 12.7908 33.9022 11.886 33.9022 10.9811C33.9022 10.2286 34.1641 9.55658 34.6426 8.97424C34.6787 8.92944 34.7148 8.88469 34.7599 8.84885C34.9044 8.67863 34.9405 8.49049 34.8683 8.28443C34.7961 8.07837 34.6425 7.95292 34.4258 7.92604C34.3175 7.90812 34.2002 7.92604 34.0828 7.92604C34.0196 7.92604 33.9654 7.92604 33.9022 7.92604V6.02672H40.3937V6.00879Z" fill="black"/>
<path d="M11.7901 9.93304C11.8081 10.0047 11.8171 10.1301 11.8532 10.2556C11.9616 10.6139 12.1963 10.8827 12.4943 11.0977C12.9999 11.465 13.5868 11.6174 14.2007 11.6532C14.4535 11.6622 14.7063 11.6532 14.9591 11.6443C15.1396 11.6443 15.3202 11.6353 15.4918 11.6084C15.9342 11.5457 16.3495 11.4024 16.7106 11.1426C17.0808 10.8827 17.3607 10.5691 17.4419 10.1033C17.469 9.93305 17.469 9.76282 17.4329 9.59259C17.3517 9.25215 17.153 8.99235 16.8912 8.76838C16.3766 8.33834 15.7626 8.15919 15.1036 8.12335C14.8508 8.10543 14.5979 8.12335 14.3451 8.12335C14.0472 8.12335 13.7493 8.15022 13.4513 8.23085C12.9909 8.34732 12.5665 8.55337 12.2234 8.89382C11.9526 9.17155 11.781 9.49406 11.772 9.94201M18.3358 9.88826V11.0261C18.3358 12.3162 17.4329 13.4181 16.187 13.7048C16.0425 13.7407 15.898 13.7586 15.7536 13.7586C15.0584 13.7675 14.3632 13.7765 13.668 13.7676C12.3859 13.7586 11.2935 12.8627 11.0046 11.6174C10.9594 11.4203 10.9414 11.2142 10.9414 11.0081C10.9414 10.2556 10.9414 9.49409 10.9414 8.74153C10.9414 7.50518 11.7901 6.43904 12.9548 6.10756C13.1985 6.03589 13.4513 6 13.7041 6C14.3361 6 14.9772 6 15.6092 6C16.3224 6.00896 16.9454 6.25984 17.469 6.75259C17.8843 7.14678 18.1552 7.62164 18.2816 8.1771C18.3087 8.29357 18.3268 8.41 18.3268 8.52646C18.3268 8.97442 18.3268 9.43134 18.3268 9.87929H18.3358" fill="black"/>
<path d="M43.9677 6.01776C43.9677 6.01776 43.9677 6.06257 43.9677 6.08944V15.9892C43.9677 15.9892 43.9406 15.9892 43.9225 15.9892H42.0898C42.0898 15.9892 42.0717 15.9892 42.0627 15.9892C42.0627 15.9892 42.0627 15.9892 42.0536 15.9802C42.0536 15.9534 42.0536 15.9265 42.0536 15.8996C42.0536 13.624 42.0536 11.3484 42.0536 9.07283C42.0536 8.51737 41.7105 8.07836 41.1959 7.94398C41.1056 7.9171 41.0153 7.91711 40.916 7.89919V6.00879C40.916 6.00879 40.9431 6.00879 40.9522 6.00879H43.9316C43.9316 6.00879 43.9496 6.00879 43.9586 6.00879C43.9586 6.00879 43.9586 6.0088 43.9677 6.01776Z" fill="black"/>
<path d="M18.8411 13.7582C18.8411 13.7582 18.8411 13.7224 18.8411 13.7045V6.0803C18.8411 6.0803 18.8411 6.04446 18.8411 6.02655H18.8501C18.8501 6.02655 18.8591 6.01758 18.8681 6.01758H21.8566C21.8566 6.01758 21.8837 6.01758 21.8927 6.01758V7.89902C21.7754 7.91693 21.667 7.93481 21.5586 7.97065C21.1614 8.09608 20.8996 8.36486 20.7912 8.76802C20.7641 8.85761 20.7551 8.95617 20.7551 9.05472C20.7551 10.6046 20.7551 12.1546 20.7551 13.7045V13.7762C20.7551 13.7762 20.728 13.7762 20.719 13.7762H18.8681C18.8681 13.7762 18.8501 13.7762 18.8411 13.7762C18.8411 13.7762 18.8411 13.7762 18.832 13.7672" fill="black"/>
</svg>
