<svg width="75" height="34" viewBox="0 0 75 34" fill="none" xmlns="http://www.w3.org/2000/svg">
<path d="M20.8505 22.608C19.39 22.5246 17.5308 22.4598 15.6715 22.4273V23.6684H19.8212V28.9754H15.653V26.5211L7.13574 26.836V23.6684H11.2669V22.4273C9.40762 22.4598 7.54839 22.5246 6.08789 22.608V18.9264C8.12795 19.0422 10.933 19.1255 13.4414 19.1255H15.1986C15.3331 18.4309 15.4304 17.7502 15.4953 17.0555L6.94563 17.5186V14.0038H15.8431L16.061 13.374L20.2756 14.4205L19.8583 15.2309C19.7748 16.4581 19.6589 18.0141 19.3761 19.0098C19.8907 18.9773 20.3868 18.9588 20.8366 18.9264V22.608H20.8505Z" fill="black"/>
<path d="M35.1903 17.0694L36.7157 17.0046V20.6861L35.1903 20.6213V22.5292H31.1566V16.7082L31.0916 13.8556H35.4407L35.1903 14.8188V17.074V17.0694ZM25.9961 19.4729C26.6592 19.4729 26.9095 19.107 26.9234 18.1299C26.9234 17.1204 26.6731 16.7545 25.9961 16.7545C25.3192 16.7545 25.0827 17.1204 25.0827 18.1299C25.0827 19.1394 25.3146 19.4729 25.9961 19.4729ZM22.8062 26.4192V23.1035H35.2042V28.9708H31.0221V26.1043L22.8062 26.4192ZM25.9961 22.1402C23.1261 22.1402 21.3828 20.6306 21.3828 18.1299C21.3828 15.6292 23.1261 14.101 25.9961 14.101C28.8661 14.101 30.628 15.6107 30.628 18.1299C30.628 20.6491 28.8847 22.1402 25.9961 22.1402Z" fill="black"/>
<path d="M53.1014 17.0046V20.6861L51.576 20.6213V22.5292H47.5423V16.7082L47.4774 13.8556H51.8264L51.576 14.8188V17.074L53.1014 17.0092V17.0046ZM46.9581 25.8218C46.9581 25.3726 46.411 25.1596 45.2008 25.1596C43.9907 25.1596 43.4761 25.3726 43.4761 25.8218C43.4761 26.271 44.0232 26.484 45.2008 26.484C46.3785 26.484 46.9581 26.2849 46.9581 25.8218ZM51.5575 25.8033C51.5575 27.8594 49.332 28.9523 45.2008 28.9523C41.0697 28.9523 38.8766 27.8594 38.8766 25.8033C38.8766 23.7472 41.1022 22.6867 45.2008 22.6867C49.2995 22.6867 51.5575 23.7796 51.5575 25.8033ZM39.2568 22.9553L37.2168 20.0702C38.6587 19.3061 39.5397 17.4862 39.5397 15.0781L39.3218 14.2307L44.4358 14.2816L44.2365 14.879C44.2179 15.5412 44.1205 16.2034 43.9722 16.8332C44.2875 16.7684 44.5842 16.6851 44.8995 16.6017C46.1281 17.2824 47.1899 18.7736 47.1899 20.3666C47.1899 21.3437 46.6428 22.1402 45.4651 22.1402C44.5703 22.1588 43.8887 21.7929 43.5224 21.2094C43.4714 20.663 43.3555 19.6859 43.1886 19.019C42.3262 20.7602 40.9631 22.1866 39.2568 22.946" fill="black"/>
<path d="M60.5713 26.0396H64.3732V25.294H60.5713V26.0396ZM62.8246 20.2V17.3659L60.3858 17.3011C60.3348 17.7132 60.2375 18.1485 60.0891 18.5607C60.4878 18.5422 60.8866 18.5097 61.2668 18.4958C62.0967 18.8756 62.5928 19.5239 62.8293 20.2046M60.3209 23.1036H68.6017L68.4673 24.2659V28.9894H64.7673V28.7579H60.154L56.468 29.0219V24.6271L56.3011 23.0712C56.2176 23.1221 56.1203 23.1545 56.0183 23.2055L53.8438 20.7002C55.1883 20.2371 56.468 18.5931 56.6674 17.4493L54.2425 17.6993V14.1197H62.8896V17.1853L64.3686 17.2687V16.7037L64.3037 13.8511H68.6713L68.4209 14.8143V22.4414H64.3732V20.4362L62.9127 20.5195C62.9637 20.7187 62.9777 20.9363 62.9777 21.1493C62.9962 21.9273 62.3285 22.5757 61.4986 22.6081C60.868 22.6266 60.1726 22.358 59.7228 21.7977C59.6579 21.367 59.5049 20.7881 59.2731 20.3065C58.5776 21.4179 57.5947 22.4136 56.4356 23.011L60.3209 23.1082V23.1036Z" fill="black"/>
<path d="M28.9916 7.12695H31.5417V6.08499H28.9916V7.12695ZM26.6409 8.9191V5.17271L26.5482 4.22337L28.769 4.26968H31.908L32.2742 4.0613L34.2401 5.11251L33.9202 5.52465L33.8275 8.92373H26.6409V8.9191ZM31.4907 9.87769C32.4875 9.85917 33.4936 9.83138 34.3375 9.78507V11.9662C33.1505 11.9014 31.6205 11.8551 30.2667 11.8643C28.9035 11.8643 27.3874 11.9014 26.2051 11.9662V9.78507C27.0443 9.83138 28.0504 9.85916 29.0565 9.86842V9.77581L29.0194 9.09044H31.5695L31.4768 9.48407L31.4861 9.87769H31.4907Z" fill="black"/>
<path d="M35.5623 5.64042L35.4973 4.15854H42.5402L42.6329 5.8766L39.137 5.83029H37.913V6.46935C39.6146 6.47861 41.3625 6.44157 42.5958 6.386L42.7581 8.07627H36.0074C35.6225 8.07627 35.5576 8.03923 35.5576 7.52057V5.64042H35.5623ZM43.18 10.5723C42.3454 10.526 41.3486 10.489 40.361 10.4797V12.3135H37.8712V10.4797C36.8744 10.4982 35.8775 10.526 35.043 10.5723V8.39117C36.2253 8.456 37.7414 8.48379 39.1045 8.48379C40.4677 8.49305 41.9838 8.456 43.1754 8.39117V10.5723H43.18Z" fill="black"/>
<path d="M47.7561 12.0681V7.28903L47.7283 6.16372H49.4948L49.3975 6.6268V12.0681H47.7561ZM45.4842 7.50205C45.2292 7.50205 45.1319 7.64561 45.1226 8.05313C45.1226 8.44675 45.22 8.59493 45.4842 8.59493C45.7485 8.59493 45.8459 8.44675 45.8506 8.05313C45.8506 7.64561 45.7532 7.50205 45.4842 7.50205ZM43.6946 9.81749C44.8259 9.88233 46.3837 9.83602 47.464 9.68783L47.5429 10.8502C46.3327 11.0076 45.1273 11.1651 43.9171 11.3272L43.6946 9.81749ZM45.4842 9.65541C44.3529 9.65541 43.6621 9.0534 43.6621 8.05313C43.6621 7.05285 44.3483 6.43694 45.4842 6.43694C46.6202 6.43694 47.311 7.04359 47.311 8.05313C47.311 9.06266 46.6248 9.65541 45.4842 9.65541Z" fill="black"/>
<path d="M1.8546 32.143H73.1408V7.03896C61.3084 3.59821 49.3184 1.85699 37.4954 1.85699C25.6723 1.85699 13.6823 3.60284 1.84996 7.03896V32.143H1.8546ZM75 34H0V5.65431L0.663016 5.45519C12.8848 1.83383 25.2782 0 37.5 0C49.7218 0 62.1152 1.83383 74.337 5.45519L75 5.65431V34Z" fill="black"/>
<path d="M12.4858 9.77111C12.4858 10.0906 12.2261 10.3453 11.9109 10.3453C11.5956 10.3453 11.3359 10.086 11.3359 9.77111C11.3359 9.45621 11.5956 9.19688 11.9109 9.19688C12.2261 9.19688 12.4858 9.45621 12.4858 9.77111Z" fill="black"/>
<path d="M23.0247 8.63207C23.0247 9.6416 22.2086 10.4566 21.1979 10.4566C20.1871 10.4566 19.3711 9.6416 19.3711 8.63207C19.3711 7.62254 20.1871 6.8075 21.1979 6.8075C22.2086 6.8075 23.0247 7.62254 23.0247 8.63207Z" fill="black"/>
<path d="M16.1733 7.62394L14.5996 9.19571L16.1733 10.7675L17.747 9.19571L16.1733 7.62394Z" fill="black"/>
<path d="M63.1582 9.77111C63.1582 10.0906 63.4178 10.3453 63.7331 10.3453C64.0484 10.3453 64.308 10.086 64.308 9.77111C64.308 9.45621 64.0484 9.19688 63.7331 9.19688C63.4178 9.19688 63.1582 9.45621 63.1582 9.77111Z" fill="black"/>
<path d="M52.6152 8.63207C52.6152 9.6416 53.4313 10.4566 54.442 10.4566C55.4528 10.4566 56.2688 9.6416 56.2688 8.63207C56.2688 7.62254 55.4528 6.8075 54.442 6.8075C53.4313 6.8075 52.6152 7.62254 52.6152 8.63207Z" fill="black"/>
<path d="M59.4565 7.59823L57.8828 9.17002L59.4565 10.7418L61.0302 9.17L59.4565 7.59823Z" fill="black"/>
</svg>
