<svg width="313" height="139" viewBox="0 0 313 139" fill="none" xmlns="http://www.w3.org/2000/svg">
<path d="M300.452 105.074L308.43 135.074H4.23406L12.2117 105.074H300.452Z" fill="#E9E1DB" stroke="#2E80C3" stroke-width="6"/>
<path d="M258.371 13.9588V22.872C241.775 22.9902 227.376 32.327 220.019 46.0071C214.484 40.0977 206.615 36.4044 197.879 36.4044C189.143 36.4044 180.89 40.2849 175.335 46.4404C168.047 32.5042 153.5 22.9705 136.708 22.8622V13.9489H119.551V119.529H136.708V110.616C153.5 110.507 168.047 100.974 175.335 87.0376C180.89 93.203 188.926 97.0736 197.879 97.0736C206.832 97.0736 214.474 93.3802 220.019 87.4709C227.376 101.151 241.775 110.488 258.371 110.606V119.519H275.528V13.9391H258.371V13.9588Z" fill="#E9E1DB"/>
<path d="M279.064 123.075H254.826V114.004C240.368 112.832 227.259 105.091 219.222 93.0355C213.224 97.9008 205.66 100.619 197.88 100.619C190.099 100.619 182.181 97.7728 176.114 92.7006C168.097 104.972 154.889 112.832 140.244 114.004V123.065H116.006V10.4131H140.244V19.4741C154.889 20.6462 168.097 28.5154 176.114 40.7773C182.181 35.6953 189.882 32.8588 197.88 32.8588C205.877 32.8588 213.224 35.5771 219.222 40.4424C227.259 28.3972 240.368 20.656 254.826 19.4741V10.4033H279.064V123.055V123.075ZM261.907 116.003H271.993V17.4945H261.907V26.3782L258.401 26.4078C243.647 26.5161 230.135 34.6611 223.142 47.6813L220.808 52.0149L217.44 48.42C212.308 42.9539 205.365 39.9401 197.88 39.9401C190.395 39.9401 183.037 43.1706 177.965 48.814L174.558 52.5959L172.204 48.0852C165.26 34.8089 151.649 26.4964 136.689 26.4078L133.172 26.388V17.4945H123.087V116.003H133.172V107.11L136.689 107.09C151.649 106.991 165.26 98.6887 172.204 85.4124L174.558 80.9016L177.965 84.6836C183.047 90.3172 190.306 93.5575 197.88 93.5575C205.453 93.5575 212.308 90.5437 217.44 85.0776L220.808 81.4827L223.142 85.8163C230.135 98.8267 243.647 106.982 258.401 107.09L261.907 107.119V116.003Z" fill="#03A54B"/>
<mask id="mask0_88_939" style="mask-type:luminance" maskUnits="userSpaceOnUse" x="119" y="13" width="157" height="107">
<path d="M258.373 13.9588V22.872C241.777 22.9902 227.378 32.327 220.021 46.0071C214.486 40.0977 206.617 36.4044 197.881 36.4044C189.145 36.4044 180.892 40.2849 175.337 46.4404C168.049 32.5042 153.502 22.9705 136.709 22.8622V13.9489H119.553V119.529H136.709V110.616C153.502 110.507 168.049 100.974 175.337 87.0376C180.892 93.203 188.928 97.0736 197.881 97.0736C206.834 97.0736 214.476 93.3802 220.021 87.4709C227.378 101.151 241.777 110.488 258.373 110.606V119.519H275.53V13.9391H258.373V13.9588Z" fill="white"/>
</mask>
<g mask="url(#mask0_88_939)">
<path d="M126.641 65.9018V78.3114H139.05L126.641 65.9018Z" fill="#03A54B"/>
<path d="M139.808 77.5531V64.8677H127.123L139.808 77.5531Z" fill="#03A54B"/>
<path d="M135.712 49.592V22.9311H109.051L135.712 49.592Z" fill="#03A54B"/>
<path d="M138.805 38.059V50.7346H151.49L138.805 38.059Z" fill="#03A54B"/>
<path d="M156.504 55.7476V73.4559L165.358 64.6018L156.504 55.7476Z" fill="#03A54B"/>
<path d="M165.85 63.5679V37.1827H139.455L165.85 63.5679Z" fill="#03A54B"/>
<path d="M152.406 23.6895V36.0991H164.816L152.406 23.6895Z" fill="#03A54B"/>
<path d="M179.825 49.592V22.9311H153.164L179.825 49.592Z" fill="#03A54B"/>
<path d="M197.907 87.4315V60.7706H171.236L197.907 87.4315Z" fill="#03A54B"/>
<path d="M179.066 70.127L170.212 61.2728L161.357 70.127H179.066Z" fill="#03A54B"/>
<path d="M188.286 79.3456L179.432 88.1997H197.14L188.286 79.3456Z" fill="#03A54B"/>
<path d="M178.397 87.7072L187.261 78.8531H169.543L178.397 87.7072Z" fill="#03A54B"/>
<path d="M168.785 106.272H195.446L168.785 79.6115V106.272Z" fill="#03A54B"/>
<path d="M198.126 31.4603V18.6666L185.332 31.4603H198.126Z" fill="#03A54B"/>
<path d="M184.682 32.5436V59.3129L211.451 32.5436H184.682Z" fill="#03A54B"/>
<path d="M170.479 41.7622V59.4803L179.333 50.6163L170.479 41.7622Z" fill="#03A54B"/>
<path d="M112.656 51.1088V62.9964L124.731 51.1088H112.656Z" fill="#03A54B"/>
<path d="M125.557 78.3115V51.9164L98.7188 78.3115H125.557Z" fill="#03A54B"/>
<path d="M208.406 61.066V43.1312L199.443 52.0936L208.406 61.066Z" fill="#03A54B"/>
<path d="M227.828 85.4519V97.8615H240.238L227.828 85.4519Z" fill="#03A54B"/>
<path d="M240.996 97.1031V84.4177H228.32L240.996 97.1031Z" fill="#03A54B"/>
<path d="M236.909 69.1421V42.4811H210.248L236.909 69.1421Z" fill="#03A54B"/>
<path d="M209.49 43.1411V61.0562L218.266 52.0937L209.49 43.1411Z" fill="#03A54B"/>
<path d="M240.002 57.6091V70.2846H252.677L240.002 57.6091Z" fill="#03A54B"/>
<path d="M257.691 75.2977V93.006L266.546 84.1518L257.691 75.2977Z" fill="#03A54B"/>
<path d="M267.038 83.1179V56.7327H240.652L267.038 83.1179Z" fill="#03A54B"/>
<path d="M253.594 43.2396V55.6492H266.003L253.594 43.2396Z" fill="#03A54B"/>
<path d="M281.024 69.1421V42.4811H254.363L281.024 69.1421Z" fill="#03A54B"/>
<path d="M299.096 106.982V80.3206H272.436L299.096 106.982Z" fill="#03A54B"/>
<path d="M280.255 89.6771L271.401 80.8229L262.547 89.6771H280.255Z" fill="#03A54B"/>
<path d="M277.35 97.5562L268.496 106.41H286.204L277.35 97.5562Z" fill="#03A54B"/>
<path d="M267.462 105.918L276.316 97.0637H258.607L267.462 105.918Z" fill="#03A54B"/>
<path d="M257.84 124.483H284.511L257.84 97.8221V124.483Z" fill="#03A54B"/>
<path d="M271.666 61.3123V79.0304L280.52 70.1664L271.666 61.3123Z" fill="#03A54B"/>
<path d="M199.09 84.4177V97.0637L211.943 84.4177H199.09Z" fill="#03A54B"/>
<path d="M213.844 70.6589V82.5465L225.918 70.6589H213.844Z" fill="#03A54B"/>
<path d="M226.746 97.8615V71.4665L199.918 97.8615H226.746Z" fill="#03A54B"/>
<path d="M268.781 24.9107V37.3203H281.191L268.781 24.9107Z" fill="#03A54B"/>
<path d="M281.949 36.5522V23.8766H269.273L281.949 36.5522Z" fill="#03A54B"/>
<path d="M240.043 23.8766V36.5128L252.896 23.8766H240.043Z" fill="#03A54B"/>
<path d="M254.795 10.1177V21.9954L266.87 10.1177H254.795Z" fill="#03A54B"/>
<path d="M267.699 37.3204V10.9254L240.871 37.3204H267.699Z" fill="#03A54B"/>
<path d="M121.501 113.551V86.8898H94.8398L121.501 113.551Z" fill="#03A54B"/>
<path d="M139.8 95.4287V82.635L127.006 95.4287H139.8Z" fill="#03A54B"/>
<path d="M126.355 96.5023V123.281L153.125 96.5023H126.355Z" fill="#03A54B"/>
<path d="M112.154 105.731V123.439L121.008 114.585L112.154 105.731Z" fill="#03A54B"/>
</g>
<path d="M68.1156 119.709C78.798 119.709 87.4578 111.05 87.4578 100.367C87.4578 89.6851 78.798 81.0254 68.1156 81.0254C57.4332 81.0254 48.7734 89.6851 48.7734 100.367C48.7734 111.05 57.4332 119.709 68.1156 119.709Z" fill="#E9E1DB"/>
<path d="M68.1152 123.367C55.4348 123.367 45.1152 113.048 45.1152 100.367C45.1152 87.687 55.4348 77.3676 68.1152 77.3676C80.7957 77.3676 91.1152 87.687 91.1152 100.367C91.1152 113.048 80.7957 123.367 68.1152 123.367ZM68.1152 84.6832C59.4695 84.6832 52.4309 91.7216 52.4309 100.367C52.4309 109.013 59.4695 116.051 68.1152 116.051C76.761 116.051 83.7996 109.013 83.7996 100.367C83.7996 91.7216 76.761 84.6832 68.1152 84.6832Z" fill="#03A54B"/>
<path d="M68.1156 81.0253C78.798 81.0253 87.4578 72.3656 87.4578 61.6833C87.4578 51.0011 78.798 42.3415 68.1156 42.3415C57.4332 42.3415 48.7734 51.0011 48.7734 61.6833C48.7734 72.3656 57.4332 81.0253 68.1156 81.0253Z" fill="#E9E1DB"/>
<path d="M68.1152 84.683C55.4348 84.683 45.1152 74.3636 45.1152 61.6833C45.1152 49.003 55.4348 38.6836 68.1152 38.6836C80.7957 38.6836 91.1152 49.003 91.1152 61.6833C91.1152 74.3636 80.7957 84.683 68.1152 84.683ZM68.1152 45.9992C59.4695 45.9992 52.4309 53.0376 52.4309 61.6833C52.4309 70.329 59.4695 77.3674 68.1152 77.3674C76.761 77.3674 83.7996 70.329 83.7996 61.6833C83.7996 53.0376 76.761 45.9992 68.1152 45.9992Z" fill="#03A54B"/>
<path d="M68.1156 42.3416C78.798 42.3416 87.4578 33.6819 87.4578 22.9997C87.4578 12.3175 78.798 3.65778 68.1156 3.65778C57.4332 3.65778 48.7734 12.3175 48.7734 22.9997C48.7734 33.6819 57.4332 42.3416 68.1156 42.3416Z" fill="#E9E1DB"/>
<path d="M68.1152 45.9994C55.4348 45.9994 45.1152 35.68 45.1152 22.9997C45.1152 10.3194 55.4348 0 68.1152 0C80.7957 0 91.1152 10.3194 91.1152 22.9997C91.1152 35.68 80.7957 45.9994 68.1152 45.9994ZM68.1152 7.31554C59.4695 7.31554 52.4309 14.354 52.4309 22.9997C52.4309 31.6454 59.4695 38.6838 68.1152 38.6838C76.761 38.6838 83.7996 31.6454 83.7996 22.9997C83.7996 14.354 76.761 7.31554 68.1152 7.31554Z" fill="#03A54B"/>
<path d="M77.4789 114.09C72.0365 116.938 65.3638 114.666 62.5151 109.224C59.5334 103.515 61.7502 97.0089 67.1926 94.1602C72.6351 91.3116 79.2413 93.207 82.2341 98.9153C83.3315 101.021 83.6197 103.537 82.8327 106.353C81.7243 103.704 80.8153 100.268 76.9801 98.5717C73.9874 97.1862 69.7642 97.7515 68.0129 100.589C65.2861 104.557 67.3479 107.45 69.465 108.747C71.6597 109.933 76.57 109.079 75.4505 105.887C74.6192 103.515 71.7816 104.247 70.3849 106.685C68.9551 104.214 71.3271 101.797 73.6326 101.354C78.2881 100.29 82.611 106.198 80.9262 110.443C80.2168 111.84 79.2635 113.17 77.49 114.09" fill="#03A54B"/>
<path d="M72.4791 115.885C71.271 115.885 70.0406 115.686 68.8545 115.298C65.9061 114.322 63.4787 112.261 62.0266 109.49C58.9784 103.659 61.1288 96.7096 66.937 93.6726C72.7452 90.6355 79.6729 92.8302 82.7211 98.6605C83.9293 100.977 84.151 103.693 83.364 106.508L82.9317 108.038L82.322 106.575C82.189 106.242 82.0449 105.898 81.9119 105.544C80.9808 103.172 79.9167 100.478 76.7688 99.0927C74.0753 97.8402 70.1182 98.2614 68.4998 100.888C67.4579 102.396 67.0811 103.815 67.3693 105.122C67.7461 106.874 69.176 107.916 69.7746 108.282C71.0714 108.98 73.4878 108.791 74.5297 107.905C75.0729 107.439 75.2059 106.841 74.9398 106.087C74.7071 105.422 74.3081 105.067 73.7317 105.012C72.7784 104.923 71.5813 105.732 70.8719 106.974L70.3953 107.816L69.9076 106.985C69.2979 105.921 69.2315 104.79 69.7303 103.693C70.3621 102.296 71.8917 101.143 73.5322 100.822C75.738 100.312 78.0989 101.221 79.8281 103.249C81.7235 105.455 82.3553 108.359 81.4353 110.654C80.7813 111.95 79.7948 113.513 77.7331 114.588C76.0815 115.453 74.2859 115.885 72.4791 115.885ZM72.4015 93.4176C70.7389 93.4176 69.0541 93.8167 67.4579 94.648C62.2039 97.3969 60.2531 103.682 63.0242 108.969C64.3432 111.485 66.5379 113.358 69.2093 114.234C71.9027 115.12 74.7514 114.899 77.2343 113.591C79.0078 112.671 79.8502 111.352 80.4377 110.177C81.1803 108.315 80.6261 105.843 78.9967 103.948C77.5336 102.241 75.5827 101.465 73.7649 101.886C72.468 102.141 71.2266 103.061 70.75 104.125C70.5394 104.579 70.4729 105.045 70.5505 105.499C71.4816 104.402 72.7119 103.781 73.8425 103.881C74.8401 103.97 75.6271 104.635 75.9929 105.699C76.4141 106.896 76.1481 107.971 75.2502 108.736C73.7095 110.044 70.7943 110.077 69.2203 109.235C67.6685 108.282 66.6044 106.874 66.283 105.344C65.9394 103.726 66.3717 102.019 67.5799 100.279C69.5529 97.0754 74.1307 96.632 77.2343 98.073C80.4488 99.4917 81.7457 102.119 82.6767 104.413C82.8984 102.529 82.5881 100.744 81.7678 99.1703C79.8502 95.4903 76.2257 93.4176 72.4237 93.4176H72.4015Z" fill="#03A54B"/>
<path d="M83.6091 61.8054C83.6091 67.9461 78.4993 72.812 72.3697 72.812C65.9297 72.812 61.1855 67.8241 61.1855 61.6946C61.1855 55.565 65.9297 50.5771 72.3697 50.5771C74.7417 50.5771 77.1137 51.4861 79.2419 53.4923C76.3821 53.2484 72.9239 52.4615 69.6429 55.0773C67.027 57.0836 65.5749 61.0961 67.2708 63.9558C69.521 68.2121 73.0458 67.7244 75.174 66.4497C77.2357 65.0531 78.7543 60.309 75.4179 59.8213C72.9239 59.4555 72.2588 62.3153 73.7773 64.6873C70.9176 64.8092 69.8868 61.5837 70.5518 59.3336C71.7711 54.7115 78.9981 53.6253 81.9798 57.0836C82.8887 58.3582 83.6202 59.8213 83.6202 61.8276" fill="#03A54B"/>
<path d="M72.3712 73.3551C65.7871 73.3551 60.6328 68.2232 60.6328 61.6724C60.6328 55.1216 65.7871 49.9896 72.3712 49.9896C74.9871 49.9896 77.4921 51.0537 79.6203 53.06L80.773 54.1573L79.188 54.0243C78.8333 53.991 78.4564 53.9578 78.0906 53.9135C75.5523 53.6364 72.6815 53.3371 69.988 55.4874C67.627 57.2941 66.175 60.9962 67.7489 63.6454C68.6024 65.2636 69.6887 66.2501 70.9745 66.6159C72.7037 67.1036 74.2887 66.3056 74.8873 65.9509C76.1065 65.1196 77.0709 62.9027 76.7605 61.5615C76.6053 60.8632 76.1398 60.4642 75.3307 60.3534C74.6323 60.2536 74.1336 60.442 73.8232 60.9186C73.2912 61.7388 73.4685 63.1577 74.2444 64.3659L74.7653 65.175L73.801 65.2193C72.6039 65.2525 71.5398 64.7981 70.8082 63.856C69.8661 62.6478 69.5557 60.7635 70.0323 59.1563C70.6087 56.9727 72.5041 55.299 75.0979 54.7004C77.9354 54.0575 80.7952 54.8334 82.4136 56.7066C83.256 57.8816 84.187 59.4888 84.187 61.8054C84.187 68.1788 78.8998 73.3662 72.3933 73.3662L72.3712 73.3551ZM72.3712 51.1091C66.4078 51.1091 61.7412 55.7534 61.7412 61.6834C61.7412 67.6135 66.4078 72.2578 72.3712 72.2578C78.3345 72.2578 83.0564 67.5692 83.0564 61.8054C83.0564 59.8103 82.2806 58.4468 81.5157 57.3828C80.2078 55.8642 77.7581 55.2103 75.3307 55.7756C73.147 56.2855 71.5509 57.6488 71.0853 59.4556C70.7085 60.7302 70.9524 62.2488 71.6728 63.1687C71.9832 63.5678 72.3601 63.8338 72.7924 63.989C72.2492 62.6589 72.2714 61.2733 72.881 60.3201C73.4241 59.4777 74.3774 59.0897 75.4859 59.256C76.7384 59.4333 77.5697 60.1649 77.8357 61.3177C78.2902 63.2907 76.9601 65.8843 75.4748 66.893C73.9119 67.8352 72.1716 68.1123 70.6641 67.6911C69.068 67.2477 67.76 66.0728 66.7735 64.1996C64.8448 60.9741 66.5851 56.7066 69.3008 54.6228C72.0497 52.4281 74.9759 52.5057 77.4366 52.7496C75.8627 51.6855 74.1446 51.1202 72.3712 51.1202V51.1091Z" fill="#03A54B"/>
<path d="M70.9908 8.30181C77.0761 7.45941 82.585 11.8598 83.4274 17.934C84.3031 24.3185 80.0134 29.6943 73.9392 30.5367C67.8539 31.3791 62.2674 27.3555 61.3917 20.9821C61.0703 18.6323 61.6467 16.1605 63.3426 13.7774C63.4867 16.6371 63.1874 20.184 66.2245 23.077C68.5633 25.3936 72.7421 26.2915 75.3358 24.2076C79.2375 21.4033 78.2843 17.9783 76.7214 16.0386C75.0587 14.1875 70.1484 13.3229 70.1262 16.7036C70.104 19.2197 73.0303 19.4969 75.1695 17.668C75.6794 20.4833 72.6312 21.9464 70.3146 21.5917C65.5705 21.0154 63.4978 13.9991 66.5238 10.5741C67.6655 9.49889 69.0066 8.57892 71.0018 8.30181" fill="#03A54B"/>
<path d="M72.3315 31.202C69.8043 31.202 67.388 30.415 65.3817 28.9075C62.8988 27.0454 61.2805 24.2522 60.8371 21.0489C60.4824 18.4552 61.1918 15.8282 62.8877 13.4451L63.8077 12.1483L63.8964 13.7333C63.9185 14.0991 63.9296 14.4648 63.9407 14.8417C64.0183 17.3911 64.107 20.273 66.6009 22.6561C68.7181 24.7399 72.5865 25.6821 74.9918 23.7645C76.4771 22.7004 77.3084 21.4922 77.4969 20.1621C77.7407 18.3887 76.7431 16.9255 76.2997 16.3713C75.3132 15.274 72.9855 14.6311 71.6997 15.1188C71.0236 15.3737 70.7022 15.8836 70.6911 16.6928C70.6911 17.3911 70.946 17.8677 71.467 18.1116C72.3537 18.5217 73.7282 18.1559 74.8255 17.2248L75.5571 16.593L75.7344 17.5463C75.9561 18.7544 75.6236 19.8407 74.7923 20.7053C73.7282 21.8026 71.8992 22.3679 70.2477 22.124C67.9976 21.8469 66.08 20.1954 65.1378 17.7014C64.107 14.9858 64.4949 12.0374 66.1243 10.1864C67.1773 9.18879 68.6404 8.04712 70.9349 7.72568C77.2308 6.86111 83.1055 11.3835 83.9923 17.8345C84.4356 21.0378 83.6375 24.1635 81.7421 26.6242C79.88 29.0516 77.1422 30.6256 74.0275 31.0579C73.4622 31.1355 72.9079 31.1687 72.3426 31.1687L72.3315 31.202ZM62.8544 15.6509C62.012 17.3578 61.7016 19.1424 61.9344 20.8937C62.3335 23.7977 63.7966 26.336 66.0356 28.0097C68.2525 29.6724 71.0236 30.3706 73.8501 29.9716C76.6766 29.5837 79.1595 28.1649 80.8443 25.9591C82.5513 23.7312 83.2718 20.9048 82.8727 17.9896C82.0636 12.1482 76.7763 8.04711 71.0679 8.823C69.0949 9.10011 67.8535 10.0533 66.9002 10.9511C65.5701 12.4586 65.2597 14.9636 66.1575 17.3024C66.9556 19.4084 68.5296 20.7939 70.3807 21.0156C71.6886 21.2151 73.1628 20.7717 73.9831 19.9293C74.3378 19.5636 74.5484 19.1535 74.6371 18.699C73.3956 19.4195 72.0212 19.5857 70.9904 19.1091C70.0815 18.6879 69.5716 17.8012 69.5826 16.6706C69.5826 15.407 70.2033 14.487 71.3007 14.0658C73.1961 13.3454 75.9451 14.3097 77.1422 15.6398C78.2838 17.0585 78.8048 18.7434 78.5942 20.2951C78.3725 21.9356 77.386 23.3876 75.6679 24.6291C72.7306 26.9789 68.2747 25.8483 65.8361 23.443C63.2867 21.0156 62.9653 18.1115 62.8655 15.6287L62.8544 15.6509Z" fill="#03A54B"/>
</svg>
