<svg width="313" height="106" viewBox="0 0 313 106" fill="none" xmlns="http://www.w3.org/2000/svg">
<path d="M300.452 72.9849L308.43 102.985H4.23406L12.2117 72.9849H300.452Z" fill="#E9E1DB" stroke="#2E80C3" stroke-width="6"/>
<path d="M169.542 4.0293L148.352 10.0057L127.161 4.0293L105.979 10.0057L84.7882 4.0293L63.6055 10.0057L42.4151 4.0293L21.2324 10.0057V89.0293L42.4151 83.0529L63.6055 89.0293L84.7882 83.0529L105.979 89.0293L127.161 83.0529L148.352 89.0293L169.542 83.0529L190.725 89.0293V10.0057L169.542 4.0293Z" fill="#E9E1DB" stroke="#03A54B" stroke-width="6.96698" stroke-miterlimit="10"/>
<mask id="mask0_88_938" style="mask-type:luminance" maskUnits="userSpaceOnUse" x="23" y="6" width="166" height="81">
<path d="M127.853 80.8838C127.63 80.8223 127.399 80.7915 127.168 80.7915C126.937 80.7915 126.707 80.8223 126.483 80.8838L105.985 86.6679L85.4872 80.8838C85.2641 80.8223 85.0334 80.7915 84.8026 80.7915C84.5719 80.7915 84.3411 80.8223 84.1181 80.8838L63.6199 86.6679L43.1218 80.8838C42.8987 80.8223 42.6679 80.7915 42.4372 80.7915C42.2065 80.7915 41.9757 80.8223 41.7526 80.8838L23.7773 85.9526V12.1823L42.4372 6.92126L62.9353 12.7054C63.1584 12.7669 63.3891 12.7977 63.6199 12.7977C63.8506 12.7977 64.0814 12.7669 64.3045 12.7054L84.8026 6.92126L105.301 12.7054C105.524 12.7669 105.755 12.7977 105.985 12.7977C106.216 12.7977 106.447 12.7669 106.67 12.7054L127.168 6.92126L147.666 12.7054C147.889 12.7669 148.12 12.7977 148.351 12.7977C148.581 12.7977 148.812 12.7669 149.035 12.7054L169.533 6.92126L188.193 12.1823V85.9526L170.218 80.8838C169.995 80.8223 169.764 80.7915 169.533 80.7915C169.303 80.7915 169.072 80.8223 168.849 80.8838L148.351 86.6679L127.853 80.8838Z" fill="white"/>
</mask>
<g mask="url(#mask0_88_938)">
<path d="M117.128 66.0928C113.205 66.0928 110.075 67.585 107.836 70.5309C106.044 72.8845 104.921 76.1765 104.737 79.5685L104.714 79.9531L104.306 80.3608L103.921 80.3838C98.7218 80.6915 93.1992 84.6219 93.1992 91.2982C93.1992 96.8131 96.4912 100.113 102.006 100.113C104.644 100.113 106.983 99.1283 108.267 97.4746C109.082 96.4285 109.413 94.9671 109.167 93.575C108.936 92.3058 108.252 91.2367 107.283 90.6291C106.66 90.2368 105.906 90.0445 105.06 90.0445C104.144 90.0445 103.406 90.2753 103.198 90.3445L103.06 89.9368L102.921 89.5292C102.921 89.5292 103.006 89.4984 103.06 89.483C103.521 89.3138 104.475 88.96 105.683 88.96C106.49 88.96 107.267 89.1215 107.99 89.4446C109.367 90.0599 110.328 91.3367 110.859 93.2288C111.336 94.9518 110.998 97.0054 109.99 98.5284C110.913 101.836 114.236 103.651 119.381 103.651C123.42 103.651 127.058 101.705 132.765 97.8746C134.88 96.4516 137.28 94.8441 140.303 93.0058L142.649 91.5752L143.195 92.2212L141.395 94.298C140.449 95.3902 136.626 101.828 136.626 111.112C136.626 118.988 140.803 123.511 148.094 123.511C150.948 123.511 152.402 122.718 153.809 121.949C155.247 121.165 156.732 120.349 159.416 120.349C160.87 120.349 161.87 120.611 162.839 120.857C163.785 121.103 164.677 121.326 166.023 121.326C169.831 121.326 172.1 118.157 173.93 115.611C175.3 113.712 176.376 112.204 177.892 112.204C178.761 112.204 179.491 112.573 179.945 113.258C180.291 113.773 180.468 114.45 180.453 115.242C181.014 114.342 181.46 113.127 181.46 111.573C181.46 108.889 179.914 107.081 177.599 107.081C176.099 107.081 175.261 107.32 174.369 107.574C173.392 107.851 172.384 108.135 170.608 108.135C168.715 108.135 166.993 107.212 165.762 105.528C162.178 100.636 164.224 91.7136 165.762 86.8294L165.823 86.6371L166.062 86.3756L166.246 86.2987C168.608 85.2757 167.639 84.6142 170.454 84.6142C171.331 84.6142 172.123 84.6758 172.8 84.8065C174.646 85.145 175.746 86.1602 175.746 87.5217C175.746 88.8831 175.184 89.4907 174.253 90.5983L174.13 90.7521C173.607 91.3829 173.369 91.9136 173.369 92.4751C173.369 94.3441 175.746 95.0133 177.968 95.0133C180.145 95.0056 181.184 94.8364 182.76 94.5749C183.706 94.421 184.776 94.2441 186.368 94.0595L187.614 93.9134L187.968 94.6441L187.075 95.5286C185.714 96.8747 185.875 98.1284 186.091 98.7514C186.222 99.1437 186.445 99.4975 186.729 99.7821C186.745 99.536 186.783 99.2821 186.86 99.0283C187.368 97.19 189.198 95.5748 191.89 94.6133C193.313 94.1057 194.605 93.8442 195.752 93.6211C198.067 93.1596 198.651 92.952 198.651 92.152C198.651 91.7982 197.397 90.8367 193.359 90.8367C192.267 90.8367 191.183 90.9675 190.229 91.0829C189.406 91.1829 188.698 91.2675 188.091 91.2675C187.575 91.2675 186.822 91.2136 186.291 90.7444C185.922 90.4137 185.722 89.9445 185.722 89.383C185.722 87.4755 187.637 86.3602 189.852 85.0757C192.675 83.4297 195.875 81.576 195.875 77.7841C195.875 72.9076 188.76 70.6847 182.153 70.6847C159.593 70.6847 144.31 74.9459 140.418 76.8688C139.695 80.3761 136.226 84.5065 130.127 85.5988C128.534 89.9214 124.95 92.5981 120.72 92.5981C120.543 92.5981 120.374 92.5981 120.197 92.5828C114.897 92.2982 110.898 88.2062 110.898 83.0528C110.898 77.9379 114.728 72.6461 121.127 72.6461C124.666 72.6461 128.242 74.692 128.242 78.6071C128.242 81.6837 126.212 83.9143 123.404 83.9143C121.174 83.9143 119.92 82.7759 119.574 80.43L120.428 80.3069C120.635 81.7529 121.974 82.5144 123.181 82.5144C125.019 82.5144 126.519 80.7684 126.519 78.6148C126.519 77.5456 126.058 76.4996 125.25 75.7535C124.281 74.8536 122.858 74.3767 121.135 74.3767C117.259 74.3767 113.067 77.6918 113.067 83.0605C113.067 87.1755 115.836 89.8753 120.297 90.1061C120.451 90.1137 120.612 90.1214 120.766 90.1214C123.627 90.1214 127.212 88.66 128.673 84.5604L128.75 84.3143L129.096 84.022L129.365 83.9835C134.18 83.2682 136.803 80.9915 137.395 77.0072C137.703 74.9382 136.565 72.2461 134.972 71.2462C133.542 70.354 132.08 69.9002 130.634 69.9002C128.658 69.9002 127.196 70.7386 126.496 71.2385L125.858 71.077C125.835 71.0308 123.312 66.1082 117.128 66.1082" fill="#03A54B"/>
<path d="M171.324 13.7437C165.725 13.7437 160.541 16.3204 156.333 21.1969L155.718 21.9122L154.964 21.6968L154.826 20.7585C154.587 19.1586 153.103 16.5742 151.449 15.5281C150.964 15.2128 150.495 15.0513 150.041 15.0359C150.095 23.9351 146.649 36.8032 140.027 43.541C136.797 46.8253 133.066 48.4944 128.936 48.4944C122.859 48.4944 119.675 44.5409 119.675 40.6336C119.675 36.3417 123.336 33.4573 126.751 33.4573C130.074 33.4573 132.135 35.311 132.135 38.2953C132.135 40.9105 130.428 42.7411 127.99 42.7411C126.251 42.7411 125.082 41.5489 125.082 39.7798H125.944C125.944 40.5105 126.782 41.0182 127.99 41.0182C129.459 41.0182 130.412 39.949 130.412 38.2953C130.412 36.2878 129.113 35.1802 126.751 35.1802C124.39 35.1802 121.836 37.2647 121.836 40.6336C121.836 42.2565 122.436 43.7487 123.521 44.8409C124.782 46.1023 126.659 46.7715 128.936 46.7715C132.174 46.7715 134.151 45.6101 135.035 44.9178C137.627 42.9026 138.942 39.9183 138.942 36.0494C138.942 30.3961 134.566 26.281 128.528 26.281C125.213 26.281 123.105 27.5271 121.913 28.5808L121.759 28.7193L121.398 28.8193L121.129 28.7731C120.452 28.6424 119.752 28.5808 119.06 28.5808C116.675 28.5808 114.56 29.3346 112.783 30.8268C109.63 33.465 108.468 38.08 109.884 42.3181L109.999 42.6642L109.799 43.1795L109.476 43.3564C107.284 44.5486 104.938 47.4099 105.522 51.5864C106.084 55.563 109.507 58.032 114.46 58.032C115.445 58.032 116.468 57.932 117.498 57.7321L117.975 57.9782C119.467 61.3394 123.321 66.962 132.389 66.962C136.712 66.962 140.342 65.8621 142.904 63.77C145.511 61.6394 146.934 58.5166 147.019 54.7323C147.073 52.1172 147.611 49.4789 148.603 46.8869C151.049 40.5336 155.887 35.3879 162.217 32.3805C162.479 32.2574 162.81 32.1882 163.125 32.1882C164.056 32.1882 164.732 32.7266 164.994 33.6727C165.479 35.4341 164.363 35.9417 163.948 36.1263C158.279 38.7107 152.426 41.3797 150.211 47.4945C148.357 52.6325 148.811 57.3936 151.534 61.2625C154.987 66.1851 161.802 69.1156 169.763 69.1156C170.77 69.1156 171.801 69.0695 172.824 68.9772C180.154 68.308 185.608 66.5774 189.053 63.8238C192.322 61.201 192.807 58.3935 192.807 56.9552C192.807 56.186 192.699 55.5245 192.561 54.9784C191.768 56.4322 190.269 58.1012 187.561 58.1012C183.808 58.1012 182.1 55.3092 182.1 52.7171C182.1 50.0866 183.123 47.233 184.308 43.9256C185.7 40.049 187.269 35.6571 187.269 30.9575C187.269 25.2427 185.923 20.9046 183.269 18.0433C180.623 15.1974 176.601 13.7514 171.316 13.7514" fill="#03A54B"/>
<path d="M88.8925 38.5876C92.8153 38.5876 95.9458 37.0955 98.184 34.1496C99.9762 31.7959 101.099 28.5039 101.284 25.1119L101.307 24.7273L101.714 24.3197L102.099 24.2966C107.299 23.989 112.821 20.0585 112.821 13.3822C112.821 7.86733 109.529 4.56761 104.014 4.56761C101.376 4.56761 99.0378 5.55216 97.7533 7.20585C96.938 8.25191 96.6072 9.7133 96.8534 11.1055C97.0841 12.3746 97.7687 13.4437 98.7378 14.0514C99.3608 14.4437 100.115 14.636 100.961 14.636C101.876 14.636 102.614 14.4052 102.822 14.336L102.961 14.7436L103.099 15.1513C103.099 15.1513 103.014 15.182 102.961 15.1974C102.499 15.3666 101.545 15.7205 100.338 15.7205C99.53 15.7205 98.7532 15.5589 98.0302 15.2359C96.6534 14.6206 95.6919 13.3438 95.1612 11.4516C94.6843 9.72869 95.0228 7.67502 96.0304 6.15208C95.1074 2.84469 91.7846 1.02949 86.6389 1.02949C82.6008 1.02949 78.9627 2.97545 73.2555 6.80588C71.1403 8.22882 68.7405 9.83639 65.7177 11.6747L63.3718 13.1053L62.8257 12.4592L64.6255 10.3825C65.5716 9.29026 69.3943 2.85239 69.3943 -6.43138C69.3943 -14.3076 65.2178 -18.8303 57.9261 -18.8303C55.0725 -18.8303 53.6188 -18.038 52.2112 -17.2689C50.7729 -16.4843 49.2884 -15.669 46.6041 -15.669C45.1503 -15.669 44.1504 -15.9305 43.1813 -16.1767C42.2352 -16.4228 41.343 -16.6458 39.997 -16.6458C36.1896 -16.6458 33.9206 -13.4769 32.09 -10.931C30.7209 -9.03115 29.6441 -7.5236 28.1288 -7.5236C27.2596 -7.5236 26.5289 -7.8928 26.0751 -8.57735C25.729 -9.09269 25.5521 -9.76954 25.5675 -10.5618C25.006 -9.66186 24.5599 -8.44659 24.5599 -6.89289C24.5599 -4.20851 26.1059 -2.40099 28.4211 -2.40099C29.921 -2.40099 30.7593 -2.63941 31.6516 -2.89324C32.6284 -3.17014 33.636 -3.45473 35.4128 -3.45473C37.3049 -3.45473 39.0278 -2.53173 40.2585 -0.847265C43.8428 4.0446 41.7968 12.9669 40.2585 17.851L40.1969 18.0433L39.9585 18.3048L39.7739 18.3818C37.4126 19.4048 38.3817 20.0662 35.5666 20.0662C34.6898 20.0662 33.8975 20.0047 33.2207 19.8739C31.3747 19.5355 30.2748 18.5202 30.2748 17.1588C30.2748 15.8666 30.8363 15.1898 31.7669 14.0822L31.89 13.9283C32.413 13.2976 32.6515 12.7669 32.6515 12.2054C32.6515 10.3363 30.2748 9.66716 28.0519 9.66716C25.8752 9.67485 24.8368 9.84407 23.26 10.1056C22.3139 10.2594 21.2448 10.4363 19.6526 10.6209L18.4066 10.7671L18.0528 10.0364L18.945 9.15183C20.3064 7.8058 20.1449 6.55206 19.9295 5.92904C19.7988 5.53677 19.5757 5.18296 19.2911 4.89837C19.2758 5.1445 19.2373 5.39831 19.1604 5.65213C18.6527 7.49043 16.8221 9.10568 14.1301 10.0671C12.7071 10.5748 11.4149 10.8363 10.2689 11.0593C7.9537 11.5208 7.36914 11.7285 7.36914 12.5284C7.36914 12.8823 8.62287 13.8437 12.661 13.8437C13.7532 13.8437 14.8377 13.713 15.7915 13.5976C16.6145 13.4976 17.3221 13.413 17.9297 13.413C18.4451 13.413 19.1988 13.4668 19.7296 13.936C20.0988 14.2668 20.2987 14.7359 20.2987 15.2974C20.2987 17.2049 18.3835 18.3202 16.1683 19.6047C13.3455 21.2507 10.1458 23.1044 10.1458 26.8964C10.1458 31.7729 17.2606 33.9957 23.8677 33.9957C46.4272 33.9957 61.7104 29.7346 65.6023 27.8117C66.3254 24.3043 69.7943 20.1739 75.8937 19.0817C77.4859 14.759 81.0702 12.0823 85.3006 12.0823C85.4775 12.0823 85.6467 12.0823 85.8236 12.0977C91.1231 12.3823 95.1228 16.4743 95.1228 21.6276C95.1228 26.781 91.2923 32.0344 84.8929 32.0344C81.3548 32.0344 77.7782 29.9884 77.7782 26.0734C77.7782 22.9967 79.8087 20.7662 82.6162 20.7662C84.8468 20.7662 86.1005 21.9045 86.4466 24.2505L85.5928 24.3735C85.3852 22.9275 84.0468 22.166 82.8392 22.166C81.001 22.166 79.5011 23.912 79.5011 26.0657C79.5011 27.1348 79.9626 28.1809 80.7702 28.927C81.7393 29.8269 83.1623 30.3038 84.8852 30.3038C88.7618 30.3038 92.9537 26.9887 92.9537 21.6199C92.9537 17.5049 90.1847 14.8052 85.7236 14.5744C85.5698 14.5667 85.4082 14.559 85.2544 14.559C82.3931 14.559 78.8088 16.0204 77.3474 20.1201L77.2705 20.3662L76.9244 20.6585L76.6552 20.6969C71.8402 21.4122 69.2174 23.689 68.6251 27.6732C68.3175 29.7423 69.4558 32.4343 71.048 33.4342C72.4786 34.3265 73.94 34.7803 75.3861 34.7803C77.3628 34.7803 78.8242 33.9419 79.5242 33.4419L80.1626 33.6035C80.1856 33.6496 82.7085 38.5723 88.8925 38.5723" fill="#03A54B"/>
<path d="M34.6975 90.929C40.297 90.929 45.4812 88.3524 49.6885 83.4759L50.3038 82.7606L51.0576 82.9759L51.196 83.9143C51.4345 85.5142 52.919 88.0985 54.5727 89.1446C55.0572 89.46 55.5264 89.6215 55.9802 89.6369C55.9264 80.7377 59.3722 67.8696 65.9947 61.1317C69.2252 57.8474 72.9556 56.1783 77.086 56.1783C83.1624 56.1783 86.3467 60.1318 86.3467 64.0392C86.3467 68.3311 82.6855 71.2155 79.2704 71.2155C75.9476 71.2155 73.8863 69.3618 73.8863 66.3774C73.8863 63.7623 75.5938 61.9317 78.0321 61.9317C79.7704 61.9317 80.9395 63.1239 80.9395 64.893H80.078C80.078 64.1623 79.2397 63.6546 78.0321 63.6546C76.563 63.6546 75.6092 64.7237 75.6092 66.3774C75.6092 68.3849 76.9091 69.4925 79.2704 69.4925C81.6318 69.4925 84.1854 67.4081 84.1854 64.0392C84.1854 62.4162 83.5854 60.9241 82.5009 59.8319C81.2395 58.5704 79.3627 57.9013 77.086 57.9013C73.8478 57.9013 71.8711 59.0627 70.9866 59.7549C68.3945 61.7701 67.0792 64.7545 67.0792 68.6234C67.0792 74.2767 71.4557 78.3917 77.4937 78.3917C80.8087 78.3917 82.9162 77.1457 84.1084 76.0919L84.2623 75.9535L84.6238 75.8535L84.893 75.8997C85.5699 76.0304 86.2698 76.0919 86.962 76.0919C89.3464 76.0919 91.4616 75.3382 93.2384 73.846C96.392 71.2078 97.5534 66.5928 96.1381 62.3547L96.0228 62.0086L96.2227 61.4932L96.5458 61.3163C98.7379 60.1241 101.084 57.2629 100.499 53.0863C99.9378 49.1098 96.515 46.6407 91.5616 46.6407C90.5771 46.6407 89.5541 46.7407 88.5234 46.9407L88.0466 46.6946C86.5544 43.3334 82.7009 37.7108 73.6325 37.7108C69.3098 37.7108 65.6793 38.8107 63.118 40.9028C60.5106 43.0334 59.0876 46.1562 59.003 49.9405C58.9492 52.5556 58.4108 55.1938 57.4185 57.7859C54.9726 64.1392 50.1346 69.2849 43.8044 72.2923C43.5429 72.4153 43.2121 72.4846 42.8968 72.4846C41.9661 72.4846 41.2892 71.9462 41.0277 71.0001C40.5431 69.2387 41.6584 68.7311 42.0738 68.5465C47.7425 65.9621 53.5958 63.2931 55.811 57.1783C57.6647 52.0403 57.2109 47.2791 54.488 43.4103C51.0345 38.4876 44.2197 35.5571 36.2589 35.5571C35.2513 35.5571 34.2206 35.6033 33.1977 35.6956C25.8675 36.3647 20.4142 38.0954 16.9684 40.849C13.6994 43.4718 13.2148 46.2792 13.2148 47.7176C13.2148 48.4867 13.3225 49.1482 13.461 49.6943C14.2532 48.2406 15.7531 46.5715 18.4605 46.5715C22.214 46.5715 23.9216 49.3636 23.9216 51.9557C23.9216 54.5862 22.8986 57.4398 21.7141 60.7472C20.3219 64.6237 18.7528 69.0157 18.7528 73.7152C18.7528 79.4301 20.0988 83.7682 22.7524 86.6294C25.3984 89.4753 29.4211 90.9214 34.7052 90.9214" fill="#03A54B"/>
</g>
<path d="M227.653 44.8345H205.115C205.115 71.431 226.521 93 252.934 93C279.346 93 300.752 71.4388 300.752 44.8345H278.214C291.748 36.331 300.752 21.2017 300.752 3.94653H205.123C205.123 21.2017 214.127 36.331 227.661 44.8345H227.653Z" fill="#E9E1DB" stroke="#03A54B" stroke-width="7.31764" stroke-miterlimit="10"/>
<mask id="mask1_88_938" style="mask-type:luminance" maskUnits="userSpaceOnUse" x="202" y="3" width="97" height="90">
<path d="M225.29 43.8879H202.752C202.752 70.4845 224.158 92.0534 250.57 92.0534C276.975 92.0534 298.389 70.4922 298.389 43.8879H275.851C289.384 35.3845 298.389 20.2552 298.389 3H202.76C202.76 20.2552 211.764 35.3845 225.298 43.8879H225.29Z" fill="white"/>
</mask>
<g mask="url(#mask1_88_938)">
<path d="M192.26 45.463C192.422 40.2104 195.88 31.9863 195.88 31.9863C192.322 29.2707 183.564 26.594 180.991 27.8975C179.497 33.0802 179.035 45.2302 182.093 54.7733C191.952 52.9656 202.921 52.9733 212.534 56.2087C212.734 55.2699 213.204 54.3156 213.635 53.6018C207.042 49.1251 200.456 46.0449 192.26 45.463Z" fill="#03A54B"/>
<path d="M213.082 20.969C215.131 21.4966 217.404 21.8069 219.576 21.931C218.975 23.7155 216.441 29.3638 215.178 35.144C215.178 35.144 216.649 36.269 218.713 36.6879C221.163 37.1845 222.772 36.6259 222.772 36.6259C227.548 26.0198 237.954 8.68708 250.325 -6.86119C247.298 -11.4465 239.495 -15.0388 234.904 -13.9448C233.179 -11.2681 230.645 -6.03879 227.964 0.160349C226.94 -2.05086 226.262 -4.49483 226.246 -7.02414C224.567 -6.94656 222.095 -5.82154 220.2 -4.24654C218.028 -10.1353 213.599 -14.8526 208.884 -16.5207L208.754 -15.9155C218.705 -7.41207 214.708 8.92758 205.141 12.5664C197.169 15.6 187.895 10.5259 187.086 2.79053C186.208 -5.60429 194.573 -13.8517 204.848 -11.2681C206.62 -15.0776 206.096 -23.6276 204.001 -26.2577C185.199 -28.019 172.813 -14.0534 172.335 -0.0103416C171.85 14.219 183.327 26.1129 198.286 26.2604C204.209 26.3147 209.223 24.3362 213.082 20.9845M224.521 8.50863C223.712 10.5569 222.911 12.6285 222.149 14.6845C221.078 14.2655 219.984 13.769 218.906 13.2026C220.092 10.7121 220.924 7.97329 221.371 5.07157C222.333 6.32071 223.396 7.47674 224.521 8.50863Z" fill="#03A54B"/>
<path d="M257.164 14.7466C255.054 14.1181 252.882 13.8311 251.611 14.2345C252.766 17.9199 252.674 21.3569 251.757 24.1112C248.283 21.5198 244.516 18.944 240.503 16.438C240.303 19.1535 239.641 23.6923 238.678 28.3397C252.743 33.4526 264.266 43.1819 270.844 51.6C271.869 51.1423 274.164 49.3112 274.703 48.4655C273.432 45.5793 271.252 42.375 268.31 39C271.237 38.0302 274.796 37.6035 278.146 38.6431C278.555 37.6811 278.501 35.9586 278.154 34.1974C280.295 37.1535 281.728 40.0009 282.121 42.5535C286.296 42.1268 293.028 36.5638 294.145 32.9017C282.229 15.3595 259.591 3.21726 249.592 1.06036C249.469 3.7526 248.714 7.2595 247.79 8.55519C250.74 10.3242 253.937 12.4267 257.157 14.7388M273.995 29.1854C270.051 29.8138 266.431 31.3655 263.419 33.8871C261.686 32.2267 259.799 30.5354 257.765 28.8362C260.523 25.95 261.586 22.6604 262.225 18.5483C266.515 21.9233 270.629 25.5698 273.995 29.1854Z" fill="#03A54B"/>
<path d="M313.552 100.115C308.499 100.309 300.65 101.247 291.969 102.504C290.621 100.774 288.087 98.656 286.762 97.9344C293.995 97.7948 319.075 93.962 327.686 91.712C328.287 88.1275 325.884 80.9353 322.379 77.987C312.928 82.0137 298.793 86.2577 286.038 89.4775C282.872 84.6051 276.679 78.2974 270.27 74.3482C273.706 73.3939 288.187 67.5749 292.647 63.6336C295.843 68.0948 298.347 72.8198 299.764 76.7767C303.754 76.6293 310.702 72.4784 312.704 69.7551C309.053 61.4379 296.259 50.8318 284.251 46.0758C283.434 48.1086 281.824 50.7232 280.623 51.662C281.817 52.4224 282.987 53.2913 284.135 54.2534C279.128 60.212 266.35 68.1569 256.76 71.7956C257.738 73.7819 257.861 76.6215 257.599 77.9948C265.641 79.3215 276.671 85.1327 282.456 90.3698C274.353 92.3405 267.074 93.8224 262.283 94.4818C261.489 95.5913 262.206 99.2146 263.438 101.178C272.828 99.4939 279.806 100.184 284.713 103.59C271.071 105.701 256.714 108.261 248.464 109.774C246.631 111.264 246.916 115.647 248.865 117.075C260.634 115.996 294.757 113.366 314.569 116.214C317.234 111.543 316.725 103.396 313.559 100.122" fill="#03A54B"/>
<path d="M247.853 60.8096C253.915 58.5829 261.679 57.6518 271.608 58.6449C263.952 45.0596 246.852 33.057 230.807 29.4492C228.65 32.4984 226.093 38.0846 225.045 42.5535C238.702 43.9656 250.495 49.6061 254.354 53.113C249.047 53.5863 240.458 56.3716 235.675 58.9941C240.297 64.0372 242.623 73.0061 238.764 77.4673C234.704 82.1613 227.972 78.0337 224.183 70.4458C219.638 61.3371 224.221 51.4992 235.336 55.5647L236.029 54.3622C227.333 49.7225 219.584 50.2346 216.002 55.7587C211.835 62.1828 213.191 70.9734 221.232 80.9354C229.975 91.7665 243.324 96.0104 249.147 89.0897C254.408 82.8285 253.807 71.0742 247.861 60.8251" fill="#03A54B"/>
</g>
</svg>
