<svg width="337" height="170" viewBox="0 0 337 170" fill="none" xmlns="http://www.w3.org/2000/svg">
<rect x="0.5" y="0.5" width="88" height="169" fill="#2687D6" stroke="black"/>
<rect x="248.5" y="0.5" width="88" height="169" fill="#D9D9D9" stroke="black"/>
<rect x="243.5" y="0.5" width="88" height="151" transform="rotate(90 243.5 0.5)" fill="#D9D9D9" stroke="black"/>
<path d="M7.57083 76.928L7.75083 71.816C9.22683 72.608 11.4948 73.076 12.5388 73.076C13.2588 73.076 13.4388 72.95 13.4388 72.698C13.4388 72.374 13.3668 72.284 12.7728 72.176L11.0628 71.834C8.41683 71.348 7.64283 70.07 7.64283 67.532C7.64283 64.688 9.31683 63.428 13.2408 63.392C14.7168 63.374 16.3368 63.5 18.1188 63.644L17.8848 68.432C16.3368 68.054 14.5908 67.676 13.6008 67.676C13.2228 67.676 12.9888 67.82 12.9888 68.216C12.9888 68.558 13.2228 68.63 13.6008 68.72L14.8068 68.99C17.4168 69.53 18.2988 70.664 18.2988 72.698C18.2988 75.866 16.6608 77.162 13.0428 77.198C11.5488 77.216 8.99283 77.072 7.57083 76.928ZM31.3718 69.044V76.766C31.3898 77.738 31.4258 78.71 31.5338 79.682H26.1878C26.2958 78.71 26.3318 77.738 26.3498 76.766V76.568C25.6478 76.928 24.5858 77.216 23.4518 77.216C20.5358 77.216 19.3658 75.56 19.3658 71.726C19.3658 67.55 20.7878 65.912 23.4518 65.912C24.6758 65.912 25.8278 66.344 26.5658 66.83L26.6558 66.128H31.5338C31.4258 67.1 31.3898 68.072 31.3718 69.044ZM25.6298 72.986C25.8638 72.986 26.0978 72.932 26.3498 72.824L26.3318 70.466C26.0978 70.34 25.8638 70.286 25.6298 70.268C25.0358 70.232 24.5858 70.538 24.5858 71.51C24.5858 72.5 24.7658 72.986 25.6298 72.986ZM44.9283 68.918V74.084C44.9463 75.056 44.9823 76.028 45.0903 77H39.8883V75.668C39.0603 76.784 37.5123 77.216 36.5583 77.216C34.1463 77.216 33.1023 76.424 33.1023 73.454V69.062C33.0843 68.09 33.0663 67.118 32.9403 66.146H33.1203L38.1243 66.074H38.3043C38.2143 67.046 38.1603 68.018 38.1423 68.99V71.456C38.1423 72.338 38.2863 72.698 38.9163 72.68C39.3123 72.662 39.6183 72.518 39.8883 72.338V69.08C39.8703 68.108 39.8343 67.136 39.7263 66.164H39.9063L44.9463 66.002H45.1263C45.0543 66.974 44.9463 67.946 44.9283 68.918ZM57.7384 70.394V74.066C57.7384 75.038 57.7744 76.01 57.8464 76.982H52.7704L52.6444 76.082C51.7984 76.766 50.8084 77.216 49.5844 77.252C47.6584 77.306 46.4344 76.064 46.4164 73.778C46.4344 71.708 47.4064 70.862 49.5124 70.664C50.3944 70.574 51.5824 70.538 52.5724 70.52C52.5004 69.926 52.1764 69.71 51.6724 69.728C50.0884 69.782 48.5044 70.07 47.1004 70.34L46.9204 66.218C49.0264 66.092 51.6364 65.93 53.1484 65.93C56.8564 65.966 57.7384 66.974 57.7384 70.394ZM51.1684 73.058C51.1684 73.346 51.3304 73.526 51.7804 73.526C52.0864 73.526 52.3384 73.454 52.5904 73.292V72.392L52.1044 72.41C51.3304 72.482 51.1684 72.77 51.1684 73.058ZM67.4987 65.93C69.4247 65.93 70.1087 66.992 70.1087 69.134C70.1087 70.322 70.0007 71.276 69.9287 72.176C68.4707 72.212 67.0127 72.284 65.5367 72.428C65.6987 71.834 65.7707 70.934 65.1227 70.934C64.8707 70.934 64.7087 71.078 64.6187 71.384V74.084C64.6367 75.056 64.6727 76.028 64.7807 77H59.4167C59.5247 76.028 59.5607 75.056 59.5787 74.084V69.08C59.5607 68.108 59.5247 67.136 59.4167 66.164H59.5967L64.6187 66.002H64.7987C64.7267 66.938 64.6367 67.892 64.6187 68.828C65.1947 66.632 66.2207 65.93 67.4987 65.93ZM75.9469 72.734C76.1089 73.364 76.5409 73.544 77.6389 73.544C79.2589 73.544 81.0229 73.346 82.4089 72.914L82.2109 76.55C81.0769 76.928 79.2049 77.216 77.2789 77.216C72.7429 77.216 70.8169 75.794 70.8169 71.546C70.8169 67.334 73.2289 65.93 77.0989 65.93C80.7889 65.93 82.4089 67.73 82.4089 70.268C82.4089 70.952 82.3189 72.05 82.2289 72.662C80.3749 72.734 77.6029 72.77 75.9469 72.734ZM76.8289 69.26C76.3249 69.26 76.0189 69.512 75.9109 70.394C76.3609 70.43 77.0989 70.43 77.6209 70.412C77.6029 69.638 77.4049 69.26 76.8289 69.26ZM55.8809 107H47.0609C46.9409 106.19 46.7609 105.23 46.5809 104.18H42.2009C41.9909 105.23 41.8109 106.19 41.6909 107H34.1309C35.9309 99.56 37.7009 92.12 39.7109 84.68H50.2109C52.1609 92.12 54.0809 99.56 55.8809 107ZM43.3109 98.72H45.5609C45.2009 97.01 44.8409 95.36 44.5109 93.89H44.4509C44.0909 95.36 43.7009 97.01 43.3109 98.72Z" fill="white"/>
<path d="M130.571 31.928L130.751 26.816C132.227 27.608 134.495 28.076 135.539 28.076C136.259 28.076 136.439 27.95 136.439 27.698C136.439 27.374 136.367 27.284 135.773 27.176L134.063 26.834C131.417 26.348 130.643 25.07 130.643 22.532C130.643 19.688 132.317 18.428 136.241 18.392C137.717 18.374 139.337 18.5 141.119 18.644L140.885 23.432C139.337 23.054 137.591 22.676 136.601 22.676C136.223 22.676 135.989 22.82 135.989 23.216C135.989 23.558 136.223 23.63 136.601 23.72L137.807 23.99C140.417 24.53 141.299 25.664 141.299 27.698C141.299 30.866 139.661 32.162 136.043 32.198C134.549 32.216 131.993 32.072 130.571 31.928ZM154.372 24.044V31.766C154.39 32.738 154.426 33.71 154.534 34.682H149.188C149.296 33.71 149.332 32.738 149.35 31.766V31.568C148.648 31.928 147.586 32.216 146.452 32.216C143.536 32.216 142.366 30.56 142.366 26.726C142.366 22.55 143.788 20.912 146.452 20.912C147.676 20.912 148.828 21.344 149.566 21.83L149.656 21.128H154.534C154.426 22.1 154.39 23.072 154.372 24.044ZM148.63 27.986C148.864 27.986 149.098 27.932 149.35 27.824L149.332 25.466C149.098 25.34 148.864 25.286 148.63 25.268C148.036 25.232 147.586 25.538 147.586 26.51C147.586 27.5 147.766 27.986 148.63 27.986ZM167.928 23.918V29.084C167.946 30.056 167.982 31.028 168.09 32H162.888V30.668C162.06 31.784 160.512 32.216 159.558 32.216C157.146 32.216 156.102 31.424 156.102 28.454V24.062C156.084 23.09 156.066 22.118 155.94 21.146H156.12L161.124 21.074H161.304C161.214 22.046 161.16 23.018 161.142 23.99V26.456C161.142 27.338 161.286 27.698 161.916 27.68C162.312 27.662 162.618 27.518 162.888 27.338V24.08C162.87 23.108 162.834 22.136 162.726 21.164H162.906L167.946 21.002H168.126C168.054 21.974 167.946 22.946 167.928 23.918ZM180.738 25.394V29.066C180.738 30.038 180.774 31.01 180.846 31.982H175.77L175.644 31.082C174.798 31.766 173.808 32.216 172.584 32.252C170.658 32.306 169.434 31.064 169.416 28.778C169.434 26.708 170.406 25.862 172.512 25.664C173.394 25.574 174.582 25.538 175.572 25.52C175.5 24.926 175.176 24.71 174.672 24.728C173.088 24.782 171.504 25.07 170.1 25.34L169.92 21.218C172.026 21.092 174.636 20.93 176.148 20.93C179.856 20.966 180.738 21.974 180.738 25.394ZM174.168 28.058C174.168 28.346 174.33 28.526 174.78 28.526C175.086 28.526 175.338 28.454 175.59 28.292V27.392L175.104 27.41C174.33 27.482 174.168 27.77 174.168 28.058ZM190.499 20.93C192.425 20.93 193.109 21.992 193.109 24.134C193.109 25.322 193.001 26.276 192.929 27.176C191.471 27.212 190.013 27.284 188.537 27.428C188.699 26.834 188.771 25.934 188.123 25.934C187.871 25.934 187.709 26.078 187.619 26.384V29.084C187.637 30.056 187.673 31.028 187.781 32H182.417C182.525 31.028 182.561 30.056 182.579 29.084V24.08C182.561 23.108 182.525 22.136 182.417 21.164H182.597L187.619 21.002H187.799C187.727 21.938 187.637 22.892 187.619 23.828C188.195 21.632 189.221 20.93 190.499 20.93ZM198.947 27.734C199.109 28.364 199.541 28.544 200.639 28.544C202.259 28.544 204.023 28.346 205.409 27.914L205.211 31.55C204.077 31.928 202.205 32.216 200.279 32.216C195.743 32.216 193.817 30.794 193.817 26.546C193.817 22.334 196.229 20.93 200.099 20.93C203.789 20.93 205.409 22.73 205.409 25.268C205.409 25.952 205.319 27.05 205.229 27.662C203.375 27.734 200.603 27.77 198.947 27.734ZM199.829 24.26C199.325 24.26 199.019 24.512 198.911 25.394C199.361 25.43 200.099 25.43 200.621 25.412C200.603 24.638 200.405 24.26 199.829 24.26ZM175.607 54.112C178.999 54.592 179.383 57.6 180.311 63.936H170.743C170.263 58.88 169.815 57.344 167.735 57.344H167.063V58.816C167.095 60.544 167.159 62.272 167.351 64H157.495C157.687 62.272 157.751 60.544 157.783 58.816V45.376C157.751 43.648 157.687 41.92 157.495 40.192H168.855C177.783 40.192 179.287 43.36 179.287 47.904C179.287 51.2 177.943 53.088 175.607 54.112ZM167.063 50.784L168.151 50.816C169.815 50.848 170.327 50.208 170.327 48.736C170.327 47.168 169.815 46.56 168.151 46.656L167.063 46.688V50.784Z" fill="#ACACAC"/>
<path d="M255.571 74.928L255.751 69.816C257.227 70.608 259.495 71.076 260.539 71.076C261.259 71.076 261.439 70.95 261.439 70.698C261.439 70.374 261.367 70.284 260.773 70.176L259.063 69.834C256.417 69.348 255.643 68.07 255.643 65.532C255.643 62.688 257.317 61.428 261.241 61.392C262.717 61.374 264.337 61.5 266.119 61.644L265.885 66.432C264.337 66.054 262.591 65.676 261.601 65.676C261.223 65.676 260.989 65.82 260.989 66.216C260.989 66.558 261.223 66.63 261.601 66.72L262.807 66.99C265.417 67.53 266.299 68.664 266.299 70.698C266.299 73.866 264.661 75.162 261.043 75.198C259.549 75.216 256.993 75.072 255.571 74.928ZM279.372 67.044V74.766C279.39 75.738 279.426 76.71 279.534 77.682H274.188C274.296 76.71 274.332 75.738 274.35 74.766V74.568C273.648 74.928 272.586 75.216 271.452 75.216C268.536 75.216 267.366 73.56 267.366 69.726C267.366 65.55 268.788 63.912 271.452 63.912C272.676 63.912 273.828 64.344 274.566 64.83L274.656 64.128H279.534C279.426 65.1 279.39 66.072 279.372 67.044ZM273.63 70.986C273.864 70.986 274.098 70.932 274.35 70.824L274.332 68.466C274.098 68.34 273.864 68.286 273.63 68.268C273.036 68.232 272.586 68.538 272.586 69.51C272.586 70.5 272.766 70.986 273.63 70.986ZM292.928 66.918V72.084C292.946 73.056 292.982 74.028 293.09 75H287.888V73.668C287.06 74.784 285.512 75.216 284.558 75.216C282.146 75.216 281.102 74.424 281.102 71.454V67.062C281.084 66.09 281.066 65.118 280.94 64.146H281.12L286.124 64.074H286.304C286.214 65.046 286.16 66.018 286.142 66.99V69.456C286.142 70.338 286.286 70.698 286.916 70.68C287.312 70.662 287.618 70.518 287.888 70.338V67.08C287.87 66.108 287.834 65.136 287.726 64.164H287.906L292.946 64.002H293.126C293.054 64.974 292.946 65.946 292.928 66.918ZM305.738 68.394V72.066C305.738 73.038 305.774 74.01 305.846 74.982H300.77L300.644 74.082C299.798 74.766 298.808 75.216 297.584 75.252C295.658 75.306 294.434 74.064 294.416 71.778C294.434 69.708 295.406 68.862 297.512 68.664C298.394 68.574 299.582 68.538 300.572 68.52C300.5 67.926 300.176 67.71 299.672 67.728C298.088 67.782 296.504 68.07 295.1 68.34L294.92 64.218C297.026 64.092 299.636 63.93 301.148 63.93C304.856 63.966 305.738 64.974 305.738 68.394ZM299.168 71.058C299.168 71.346 299.33 71.526 299.78 71.526C300.086 71.526 300.338 71.454 300.59 71.292V70.392L300.104 70.41C299.33 70.482 299.168 70.77 299.168 71.058ZM315.499 63.93C317.425 63.93 318.109 64.992 318.109 67.134C318.109 68.322 318.001 69.276 317.929 70.176C316.471 70.212 315.013 70.284 313.537 70.428C313.699 69.834 313.771 68.934 313.123 68.934C312.871 68.934 312.709 69.078 312.619 69.384V72.084C312.637 73.056 312.673 74.028 312.781 75H307.417C307.525 74.028 307.561 73.056 307.579 72.084V67.08C307.561 66.108 307.525 65.136 307.417 64.164H307.597L312.619 64.002H312.799C312.727 64.938 312.637 65.892 312.619 66.828C313.195 64.632 314.221 63.93 315.499 63.93ZM323.947 70.734C324.109 71.364 324.541 71.544 325.639 71.544C327.259 71.544 329.023 71.346 330.409 70.914L330.211 74.55C329.077 74.928 327.205 75.216 325.279 75.216C320.743 75.216 318.817 73.794 318.817 69.546C318.817 65.334 321.229 63.93 325.099 63.93C328.789 63.93 330.409 65.73 330.409 68.268C330.409 68.952 330.319 70.05 330.229 70.662C328.375 70.734 325.603 70.77 323.947 70.734ZM324.829 67.26C324.325 67.26 324.019 67.512 323.911 68.394C324.361 68.43 325.099 68.43 325.621 68.412C325.603 67.638 325.405 67.26 324.829 67.26ZM283.191 91.832V83.192H302.807V91.832C301.175 91.736 299.479 91.64 297.655 91.576V101.752C297.687 103.48 297.751 105.208 297.943 106.936H288.087C288.279 105.208 288.343 103.48 288.375 101.752V91.576C286.711 91.64 285.047 91.736 283.191 91.832Z" fill="#ACACAC"/>
</svg>
