<svg width="206" height="42" viewBox="0 0 206 42" fill="none" xmlns="http://www.w3.org/2000/svg">
<path d="M155.43 24.3695C152.374 17.7098 149.441 9.73343 146.63 3C117.332 7.40934 87.5424 7.42152 58.2416 3.03654C55.4371 9.772 52.5093 17.7504 49.4587 24.4128C45.0999 25.7862 40.6724 27.069 36.1795 28.2571C35.9536 29.8931 35.7291 31.5291 35.5059 33.1658C79.6712 42.2964 125.231 42.2781 169.391 33.1103C169.064 31.4304 168.737 29.7511 168.41 28.0711C164.021 26.9263 159.693 25.6915 155.43 24.3695Z" fill="#EDE6DD" stroke="#FF2F34" stroke-width="3.81441" stroke-miterlimit="10"/>
<path d="M202.879 32.2647C202.879 32.9083 203.401 33.43 204.044 33.43C204.688 33.43 205.21 32.9083 205.21 32.2647C205.21 31.6211 204.688 31.0994 204.044 31.0994C203.401 31.0994 202.879 31.6211 202.879 32.2647Z" fill="#FF2F34"/>
<path d="M181.592 29.9568C181.592 31.9925 183.242 33.6455 185.281 33.6455C187.319 33.6455 188.969 31.9954 188.969 29.9568C188.969 27.9182 187.319 26.268 185.281 26.268C183.242 26.268 181.592 27.9182 181.592 29.9568Z" fill="#FF2F34"/>
<path d="M195.42 27.9187L192.24 31.0984L195.42 34.2781L198.6 31.0984L195.42 27.9187Z" fill="#FF2F34"/>
<path d="M3.11914 32.2647C3.11914 32.9083 2.59745 33.43 1.95384 33.43C1.31023 33.43 0.78854 32.9083 0.78854 32.2647C0.78854 31.6211 1.31023 31.0994 1.95384 31.0994C2.59745 31.0994 3.11914 31.6211 3.11914 32.2647Z" fill="#FF2F34"/>
<path d="M24.4062 29.9568C24.4062 31.9925 22.7561 33.6455 20.7175 33.6455C18.679 33.6455 17.0288 31.9954 17.0288 29.9568C17.0288 27.9182 18.679 26.268 20.7175 26.268C22.7561 26.268 24.4062 27.9182 24.4062 29.9568Z" fill="#FF2F34"/>
<path d="M10.5781 27.9187L13.7578 31.0984L10.5781 34.2781L7.39842 31.0984L10.5781 27.9187Z" fill="#FF2F34"/>
</svg>
