<svg width="362" height="125" viewBox="0 0 362 125" fill="none" xmlns="http://www.w3.org/2000/svg">
<path d="M6.33203 4V68.2653L27.101 62.2421L48.5956 4H6.33203Z" fill="#2E80C3" stroke="#E7372F" stroke-width="5.9" stroke-miterlimit="10"/>
<path d="M312.717 4L334.211 62.2421L354.973 68.2653V4H312.717Z" fill="#2E80C3" stroke="#E7372F" stroke-width="5.9" stroke-miterlimit="10"/>
<path d="M320.711 73.6877C318.05 66.9935 303.96 27.3905 295.643 4C257.428 9.88273 218.964 12.8397 180.5 12.8553C142.021 12.8709 103.533 9.95295 65.3035 4.10143C56.9787 27.5309 42.8727 67.2432 40.2668 73.8203C37.3645 74.8736 14.0208 82.8394 5.1187 85.5546C4.51794 90.5479 3.92498 95.5411 3.33203 100.542C61.7692 114.477 121.135 121.428 180.5 121.405C239.866 121.374 299.232 114.367 357.669 100.371C356.803 95.2447 355.937 90.1187 355.078 84.9928C346.481 82.4103 323.652 74.741 320.726 73.6955L320.711 73.6877Z" fill="#FBC91B" stroke="#E7372F" stroke-width="5.9" stroke-miterlimit="10"/>
<path d="M80.4009 81.201C84.2317 81.6847 88.1093 82.145 91.3628 82.4415L90.1456 90.8209C85.6205 89.9081 79.7923 88.886 74.5962 88.1604C69.3688 87.4036 63.5251 86.6936 58.9688 86.2801L60.1859 77.9008C63.3847 78.5483 67.2311 79.2115 71.0853 79.8122L71.1399 79.4612L71.3818 76.8085L81.1655 78.2362L80.596 79.6952L80.4087 81.2088L80.4009 81.201ZM62.3548 74.8111L64.4458 60.432L64.6252 56.7339L73.1216 58.1538L85.1523 59.9093L86.6737 59.3085L93.6253 64.4423L92.1664 65.8388L89.9194 78.837L62.3548 74.8189V74.8111ZM72.95 65.2537L72.3648 69.2483L82.1486 70.6761L82.7337 66.6814L72.95 65.2537Z" fill="#E7372F"/>
<path d="M124.614 88.8314C121.423 88.3398 117.592 87.8171 113.785 87.4114L113.083 94.5035L103.486 93.5594L104.188 86.4674C100.334 86.1553 96.48 85.8822 93.2578 85.7496L94.0848 77.3156C98.61 78.01 104.454 78.6965 109.712 79.2115C114.963 79.7654 120.838 80.2023 125.441 80.4052L124.614 88.8392V88.8314ZM97.1042 66.8843L97.4241 61.142L124.583 63.8181L124.279 70.481L110.82 68.9752L106.092 68.5071L105.85 70.9803C112.404 71.6591 119.161 72.1819 123.943 72.4393V79.0242L97.9 76.4574C96.4176 76.3091 96.1836 76.1453 96.3864 74.1324L97.1042 66.8687V66.8843Z" fill="#E7372F"/>
<path d="M126.721 83.3076C132.822 83.9785 141.264 84.1658 147.146 83.6586L147.248 89.9783C140.655 90.4854 134.101 91.0003 127.509 91.5465L126.729 83.3076H126.721ZM136.465 82.9252C130.341 82.6054 126.791 79.1569 127.072 73.7423C127.353 68.2887 131.238 65.1913 137.363 65.5111C143.518 65.831 147.068 69.3185 146.788 74.7643C146.507 80.1789 142.621 83.2451 136.465 82.9252ZM137.066 71.2846C135.685 71.2144 135.116 71.9634 134.967 74.1558C134.858 76.2779 135.35 77.1206 136.762 77.1908C138.174 77.261 138.751 76.4808 138.892 74.3586C139.009 72.1663 138.517 71.3548 137.066 71.2846ZM148.075 96.6256L149.417 70.7541L149.588 64.6607L159.146 65.1522L158.483 67.6411L156.954 97.0859L148.067 96.6256H148.075Z" fill="#E7372F"/>
<path d="M198.477 83.9473C195.356 83.7835 191.385 83.6508 187.422 83.5962V86.2567L196.293 86.2255L196.332 97.5697L187.437 97.6009L187.414 92.3579L169.235 93.0991L169.212 86.3269L178.036 86.2957V83.6352C174.057 83.7211 170.086 83.8771 166.973 84.0644L166.941 76.1999C171.303 76.434 177.295 76.59 182.639 76.5666L186.4 76.551C186.681 75.0608 186.883 73.6096 187.024 72.1195L168.775 73.1805L168.744 65.6672L187.742 65.597L188.194 64.2472L197.205 66.4474L196.324 68.1872C196.16 70.8087 195.918 74.1402 195.325 76.2701C196.425 76.1921 197.486 76.1531 198.446 76.0829L198.477 83.9473Z" fill="#E7372F"/>
<path d="M210.087 82.4259C203.962 82.7302 200.085 79.6952 199.819 74.3508C199.546 68.9674 203.104 65.5658 209.229 65.2537C215.384 64.9416 219.262 67.9766 219.535 73.36C219.8 78.7044 216.25 82.1138 210.087 82.4181V82.4259ZM203.744 91.8976L203.393 84.8211L229.834 83.4948L230.458 96.0249L221.54 96.4696L221.236 90.345L203.752 91.8976H203.744ZM209.798 76.7226C211.21 76.6524 211.71 75.8488 211.639 73.7579C211.53 71.5967 210.961 70.8477 209.509 70.9179C208.097 70.9882 207.598 71.7918 207.707 73.9529C207.809 76.0439 208.347 76.7929 209.798 76.7226ZM229.147 70.6059L232.393 70.3016L232.783 78.1582L229.522 78.1816L229.725 82.2543L221.127 82.6834L220.503 70.2626L220.058 64.1848L229.334 63.7167L228.905 65.7998L229.147 70.6137V70.6059Z" fill="#E7372F"/>
<path d="M237.027 82.621L232.088 76.9021C234.998 74.9828 236.488 70.9179 235.997 65.8076L235.365 64.0522L246.241 63.1003L245.944 64.4111C246.046 65.8232 245.975 67.2588 245.788 68.6319C246.444 68.4291 247.06 68.1872 247.715 67.9454C250.469 69.1391 253.036 72.096 253.364 75.4821C253.567 77.5653 252.568 79.3675 250.064 79.6094C248.16 79.8278 246.639 79.1959 245.741 78.0334C245.523 76.8787 245.07 74.819 244.587 73.4458C243.112 77.3312 240.514 80.6393 237.042 82.621H237.027ZM263.748 86.1475C264.17 90.5244 259.676 93.3097 250.891 94.1602C242.176 95.0028 237.222 93.1381 236.8 88.7612C236.379 84.4545 240.881 81.6691 249.596 80.8265C258.381 79.9761 263.335 81.8408 263.748 86.1475ZM253.988 87.1306C253.895 86.1787 252.685 85.8354 250.111 86.0851C247.606 86.3269 246.49 86.8965 246.576 87.8483C246.67 88.8392 247.879 89.1435 250.384 88.9016C252.958 88.6519 254.082 88.1136 253.988 87.1306ZM265.215 67.0949L265.98 74.9282L262.719 75.0998L263.109 79.1569L254.534 79.9917L253.333 67.6099L252.599 61.5555L261.837 60.6583L261.509 62.757L261.977 67.5553L265.207 67.1027L265.215 67.0949Z" fill="#E7372F"/>
<path d="M280.358 78.0802L297.866 75.5602L297.936 78.0568L299.372 88.059L291.546 89.1825L291.476 88.691L281.723 90.0953L274.015 91.7806L272.681 82.4805L271.854 79.2349C271.69 79.3675 271.495 79.469 271.3 79.6016L265.94 74.9672C268.639 73.5784 270.84 69.7164 270.918 67.2354L265.87 68.4993L264.777 60.9236L283.057 58.2943L283.994 64.7855L287.138 64.5125L286.966 63.3188L285.96 57.3034L295.19 55.9771L294.956 58.0914L297.281 74.2338L288.722 75.4665L288.113 71.2222L285.055 71.8386C285.219 72.2443 285.32 72.6968 285.39 73.1493C285.663 74.7955 284.454 76.3637 282.714 76.6836C281.388 76.9099 279.835 76.5588 278.712 75.5055C278.439 74.6161 277.947 73.4302 277.307 72.4862C276.168 75.0452 274.405 77.4482 272.127 79.0711L280.366 78.1036L280.358 78.0802ZM284.774 71.1832L283.908 65.1835L278.727 65.7842C278.751 66.6736 278.665 67.6177 278.478 68.5383C279.313 68.3823 280.147 68.1872 280.951 68.039C282.823 68.5929 284.072 69.8101 284.766 71.1754L284.774 71.1832ZM281.552 82.6366L281.778 84.2126L289.814 83.0579L289.588 81.4819L281.552 82.6366Z" fill="#E7372F"/>
<path d="M86.1827 25.7442C89.2489 26.1109 92.44 26.4074 94.5621 26.5166L94.0316 30.4801C91.6832 29.9729 87.9616 29.3488 84.6457 28.9119C81.3533 28.4749 77.7019 28.1317 75.3691 27.999L75.8997 24.0356C77.2728 24.3243 79.1219 24.6832 81.088 25.0031V24.9406L81.2051 23.4817L86.5338 24.1916L86.2139 24.9796L86.1749 25.7442H86.1827ZM82.0711 35.2393C85.7146 35.8089 89.5064 36.0351 91.9718 35.9571L92.003 39.4212C91.3165 39.3042 90.1774 39.1559 89.5922 39.0779L76.7657 37.3693C75.8841 37.2522 75.7514 37.1508 75.9075 35.9493L76.2352 33.4761L76.2118 31.6972L86.4324 33.0391L86.5338 32.2823L76.2586 31.1666L76.5472 28.5374L92.8535 30.7141L91.7612 35.6918L82.1647 34.4591L82.0633 35.2393H82.0711ZM87.6885 25.3073C87.8992 24.6754 88.1098 24.0824 88.2737 23.4661L77.2182 22.5922L77.7878 18.3089L89.1865 19.8303L89.522 19.0657L94.8352 21.0552L94.172 22.0149C93.8677 23.3646 93.4776 25.1513 93.0173 26.0251L87.6885 25.3151V25.3073Z" fill="#E7372F"/>
<path d="M115.036 29.7311L114.544 34.4045L112.594 34.1158L111.814 41.5277L106.524 40.9738L106.828 38.087C103.411 38.0246 99.3617 37.814 96.0537 37.5097C95.172 37.4161 95.0316 37.3146 95.1564 36.1131L96.0615 27.4997L100.86 28.0068L101.055 26.1734L100.782 26.1422L95.9367 26.0797L96.1629 21.4843L102.373 22.1397L102.896 21.617L107.398 23.5597L106.501 24.7612L105.549 32.4072L100.852 31.9157L100.68 33.5151C102.428 33.7023 105.01 33.8427 107.273 33.8271L108.139 25.5726L108.435 21.9447L114.123 22.5454L113.647 24.0044L113.062 29.6062L115.028 29.7311H115.036Z" fill="#E7372F"/>
<path d="M126.955 36.9011C128.29 36.9089 129.569 36.8777 130.7 36.8075L130.685 40.5837C126.745 40.81 122.82 41.0362 118.873 41.2859L118.506 36.355C119.536 36.4954 120.698 36.5969 121.9 36.6827L121.986 34.8648L118.99 34.9272L119.606 26.2904L119.325 24.5739L124.576 25.0733L124.435 27.0394L126.144 27.1642L126.292 25.0733L131.013 25.5414L130.318 35.2783L127.26 35.0599L127.049 35.5982L126.955 36.9089V36.9011ZM124.217 30.0588L124.108 31.6036L125.816 31.7284L125.926 30.1836L124.217 30.0588ZM138.588 31.4709L138.253 36.1599L136.653 35.9805L136.123 43.3924L130.825 43.0101L131.933 27.5699L132.105 23.9342L137.808 24.3399L137.387 25.8145L136.989 31.4085L138.596 31.4631L138.588 31.4709Z" fill="#E7372F"/>
<path d="M155.091 38.8985H157.83L157.604 43.9464C154.857 43.6811 151.331 43.4158 148.202 43.2988C145.05 43.1584 141.531 43.0881 138.801 43.1194L139.027 38.0636L141.836 38.3133L141.851 37.9778L141.82 36.3238L147.344 36.5657L147.204 37.4317L147.149 38.641L148.421 38.6956C148.889 38.719 149.349 38.7346 149.817 38.758L149.833 38.3367L149.778 36.6827L155.302 36.9245L155.162 37.7906L155.115 38.9141L155.091 38.8985ZM139.799 30.0276C139.963 26.3684 143.459 24.3789 148.998 24.6208C154.584 24.8626 157.916 27.1564 157.752 30.8156C157.588 34.4747 154.069 36.4798 148.483 36.238C142.944 35.9961 139.628 33.6867 139.792 30.0276H139.799ZM145.869 30.2928C145.823 31.4319 146.899 31.9703 148.678 32.0483C150.473 32.1263 151.643 31.6894 151.69 30.5503C151.737 29.4112 150.621 28.826 148.819 28.748C147.04 28.67 145.916 29.1537 145.869 30.2928Z" fill="#E7372F"/>
<path d="M159.717 30.1056C159.818 28.4359 161.542 27.2032 163.953 27.2578C166.77 27.3203 167.995 28.2409 167.932 31.073C167.893 32.9377 166.902 36.5578 165.81 38.8438L161.347 38.7424C161.012 36.6593 160.411 32.2823 159.717 30.1056ZM160.091 41.91C160.13 40.0297 161.121 39.3276 163.618 39.3822C166.091 39.4368 167.074 40.178 167.027 42.0661C166.988 43.9698 165.974 44.6876 163.493 44.6329C160.996 44.5783 160.037 43.8137 160.083 41.91H160.091Z" fill="#E7372F"/>
<path d="M192.453 29.5438L192.468 34.2406L190.518 34.1626V36.5969L185.384 36.6125V35.4031C182.294 35.9025 177.527 36.238 174.399 36.3316C173.509 36.3784 173.361 36.2926 173.361 35.0833L173.338 29.1147L173.119 26.0875L184.104 26.0485L184.12 29.8793L178.425 29.8949V32.2901C180.313 32.2901 183.277 31.9546 185.376 31.5255V29.1771L185.275 25.5336L190.822 25.518L190.51 26.7507V29.6296L192.468 29.536L192.453 29.5438ZM190.525 40.7943C190.533 43.4158 187.701 44.828 182.435 44.8436C177.207 44.8592 174.367 43.4704 174.36 40.849C174.352 38.2665 177.184 36.8621 182.411 36.8387C187.686 36.8231 190.525 38.2119 190.533 40.7943H190.525ZM184.658 40.8334C184.658 40.2638 183.956 39.9907 182.411 39.9907C180.906 39.9907 180.211 40.2716 180.211 40.8411C180.211 41.4341 180.913 41.6838 182.419 41.6838C183.964 41.6838 184.658 41.4263 184.658 40.8334Z" fill="#E7372F"/>
<path d="M195.115 37.5721L192.314 33.991C194.125 32.8519 195.17 30.363 195.069 27.1018L194.764 26.0329L201.263 25.8925L201.053 26.6805C201.053 27.5699 200.959 28.4671 200.795 29.3176C201.193 29.2005 201.568 29.0835 201.973 28.9821C203.549 29.8637 204.962 31.8376 205.032 33.9052C205.071 35.1769 204.408 36.2302 202.902 36.3004C201.739 36.3394 200.834 35.8791 200.366 35.1067C200.304 34.3889 200.132 33.0781 199.914 32.2199C198.907 34.5215 197.245 36.4564 195.123 37.5565L195.115 37.5721ZM212.022 43.9386C211.344 43.8995 210.204 43.9542 209.627 43.9698L197.222 44.3521C196.333 44.3833 196.184 44.2974 196.145 43.0959L196.044 39.7333L195.771 37.6891L201.295 37.5175L201.388 40.4589C204.837 40.3964 209.315 39.7879 211.578 39.1481L212.022 43.9464V43.9386ZM205.999 38.9297L205.687 28.748L205.492 25.1123L211.102 24.9406L210.829 26.2592L211.219 38.7658L206.015 38.9297H205.999Z" fill="#E7372F"/>
<path d="M218.949 35.8401C215.29 36.0585 212.958 34.2406 212.77 31.0106C212.575 27.7572 214.682 25.6584 218.333 25.44C222.008 25.2215 224.348 27.055 224.536 30.3084C224.731 33.5385 222.624 35.6138 218.949 35.8323V35.8401ZM213.192 36.7061C216.859 36.7061 221.883 36.2536 225.339 35.567L225.815 39.312C221.938 40.0532 218.076 40.7865 214.198 41.5433L213.192 36.7061ZM218.536 28.8807C217.709 28.9275 217.42 29.4112 217.483 30.7219C217.561 31.9859 217.904 32.454 218.747 32.4072C219.589 32.3604 219.878 31.8532 219.823 30.5815C219.745 29.2708 219.402 28.826 218.536 28.8729V28.8807ZM226.744 43.1974L225.831 27.7494L225.534 24.1214L231.238 23.7859L231.011 25.3073L232.049 42.8853L226.744 43.1974Z" fill="#E7372F"/>
<path d="M256.002 32.8129C254.137 32.8753 251.765 33.0079 249.401 33.1874L249.549 34.7712L254.823 34.2875L255.448 41.0362L250.158 41.5199L249.869 38.3991L239.087 39.7957L238.712 35.7698L243.963 35.2861L243.815 33.7023C241.459 33.9598 239.102 34.2641 237.261 34.5371L236.832 29.8559C239.438 29.7623 243.011 29.5438 246.194 29.2474L248.434 29.0445C248.519 28.1395 248.566 27.2656 248.574 26.3762L237.768 27.9678L237.355 23.4973L248.652 22.4596L248.855 21.6326L254.332 22.4674L253.903 23.5519C253.942 25.1201 253.973 27.1174 253.731 28.4125C254.379 28.3111 255.011 28.2331 255.58 28.1395L256.009 32.8207L256.002 32.8129Z" fill="#E7372F"/>
<path d="M263.038 31.3851C259.402 31.822 256.96 30.1758 256.578 27.0004C256.196 23.8015 258.17 21.6248 261.806 21.1879C265.465 20.7431 267.899 22.3972 268.289 25.5882C268.671 28.7636 266.697 30.9404 263.038 31.3851ZM259.652 37.299L259.145 33.0938L274.85 31.1979L275.748 38.641L270.45 39.2808L270.013 35.645L259.652 37.299ZM262.625 27.999C263.467 27.8976 263.725 27.3983 263.6 26.1578C263.444 24.8782 263.077 24.4491 262.211 24.5583C261.369 24.6598 261.111 25.1591 261.267 26.4464C261.415 27.6869 261.767 28.1161 262.633 28.0068L262.625 27.999ZM273.906 23.5441L275.834 23.2242L276.395 27.8898L274.453 28.038L274.741 30.4567L269.631 31.073L268.741 23.6923L268.219 20.0878L273.727 19.4246L273.555 20.6807L273.899 23.5441H273.906Z" fill="#E7372F"/>
<path d="M284.549 32.4696C285.041 35.9883 282.872 38.0246 279.103 38.6176L278.292 36.6593C279.665 36.4018 280.757 35.9727 280.96 35.2783C279.017 35.4266 278.073 34.8102 277.878 33.4058C277.652 31.8142 278.768 30.8858 280.968 30.5815C283.277 30.2538 284.323 30.878 284.549 32.4696Z" fill="#E7372F"/>
<path d="M55.8164 97.7257C97.1593 104.584 138.83 108.001 180.493 107.985C221.812 107.97 263.132 104.56 304.139 97.7803" stroke="#E7372F" stroke-width="5.9" stroke-miterlimit="10"/>
<path d="M286.171 46.0841C251.078 50.9214 215.805 53.3478 180.532 53.3712C144.299 53.3868 108.067 50.859 72.0371 45.7954" stroke="#E7372F" stroke-width="5.9" stroke-miterlimit="10"/>
<path d="M344.865 93.1693C344.865 94.1602 345.669 94.9716 346.667 94.9716C347.666 94.9716 348.47 94.168 348.47 93.1693C348.47 92.1707 347.666 91.3671 346.667 91.3671C345.669 91.3671 344.865 92.1707 344.865 93.1693Z" fill="#E7372F"/>
<path d="M311.957 89.6038C311.957 92.7558 314.508 95.3071 317.66 95.3071C320.812 95.3071 323.364 92.7558 323.364 89.6038C323.364 86.4518 320.812 83.9005 317.66 83.9005C314.508 83.9005 311.957 86.4518 311.957 89.6038Z" fill="#E7372F"/>
<path d="M333.335 86.4502L328.42 91.3658L333.335 96.2813L338.251 91.3658L333.335 86.4502Z" fill="#E7372F"/>
<path d="M16.126 93.1693C16.126 94.1602 15.3224 94.9716 14.3238 94.9716C13.3251 94.9716 12.5215 94.168 12.5215 93.1693C12.5215 92.1707 13.3251 91.3671 14.3238 91.3671C15.3224 91.3671 16.126 92.1707 16.126 93.1693Z" fill="#E7372F"/>
<path d="M49.0355 89.6038C49.0355 92.7558 46.4842 95.3071 43.3322 95.3071C40.1802 95.3071 37.6289 92.7558 37.6289 89.6038C37.6289 86.4518 40.1802 83.9005 43.3322 83.9005C46.4842 83.9005 49.0355 86.4518 49.0355 89.6038Z" fill="#E7372F"/>
<path d="M27.6421 86.4514L22.7266 91.3669L27.6421 96.2825L32.5576 91.3669L27.6421 86.4514Z" fill="#E7372F"/>
</svg>
