<svg width="57" height="24" viewBox="0 0 57 24" fill="none" xmlns="http://www.w3.org/2000/svg">
<path d="M33.6674 11.995H31.5908V5.31152H28.3406V17.5317H24.5305V20.4613H31.5908V14.9246H32.5118C32.9903 14.9246 33.3695 15.3098 33.3695 15.7757V20.4613H36.6198V14.9246C36.6198 13.303 35.3016 11.995 33.6674 11.995Z" fill="black"/>
<path d="M21.1531 16.6982C20.5211 16.6982 19.9884 16.9043 19.5641 17.3254C19.1307 17.7465 18.9141 18.2751 18.9141 18.9201C18.9141 19.5652 19.1217 20.0937 19.5461 20.5058C19.9704 20.9269 20.5031 21.133 21.1531 21.133C21.8032 21.133 22.3359 20.9269 22.7693 20.5058C23.2026 20.0848 23.4103 19.5562 23.4103 18.9201C23.4103 18.284 23.1936 17.7465 22.7693 17.3254C22.3359 16.9043 21.8032 16.6982 21.1531 16.6982Z" fill="black"/>
<path d="M14.5993 5.36523H11.349V8.79657H9.27246V11.7261H11.349V20.4702H17.4433V17.5137H14.5993V11.7261H17.4433V8.79657H14.5993V5.36523Z" fill="black"/>
<path d="M2.07658 5.36523V8.79657H0V11.7261H2.07658V20.4702H8.17083V17.5137H5.3359V11.7261H8.17083V8.79657H5.3359V5.36523H2.07658Z" fill="black"/>
<path d="M38.2264 8.42039H33.5044V11.35H38.2264V20.4703H41.4857V11.35V8.42039V5.41016H38.2264V8.42039Z" fill="black"/>
<path d="M53.6826 12.55V17.5402H52.3735C51.904 17.5402 51.5158 17.155 51.5158 16.6892V11.3496H56.9329V8.41992H42.8394V11.3496H48.2835V12.55H42.8394V20.4699H46.0896V15.4797H48.2746V17.5402C48.2746 19.1618 49.5927 20.4699 51.2269 20.4699H56.9329V12.55H53.6826Z" fill="black"/>
<path d="M49.8816 7.44372C50.5227 7.44372 51.0644 7.23765 51.4977 6.81657C51.9311 6.39549 52.1388 5.86688 52.1388 5.22183C52.1388 4.57678 51.9221 4.04822 51.4977 3.62715C51.0644 3.20607 50.5317 3 49.8816 3C49.2316 3 48.7169 3.20607 48.2926 3.62715C47.8683 4.04822 47.6426 4.57678 47.6426 5.22183C47.6426 5.86688 47.8502 6.39549 48.2746 6.81657C48.6989 7.23765 49.2316 7.44372 49.8816 7.44372Z" fill="black"/>
</svg>
