<svg width="61" height="23" viewBox="0 0 61 23" fill="none" xmlns="http://www.w3.org/2000/svg">
<path d="M18.4824 22.1738C17.8504 22.1738 17.0739 22.0126 16.5412 21.7707L16.2343 20.0058L16.4689 19.943L16.7669 20.597C17.0016 21.1167 17.5434 21.6094 18.5726 21.6094C19.4845 21.6094 20.3693 21.1167 20.3693 20.0864C20.3693 19.2621 19.6831 18.8053 19.024 18.5006L18.2295 18.1243C17.3628 17.7212 16.5231 17.0582 16.5231 15.9562C16.5231 14.478 17.8323 13.6359 19.2137 13.6359C19.4123 13.6359 19.7734 13.6448 20.1526 13.7165C20.6402 13.815 20.8117 13.8509 20.8749 13.6717L20.92 13.5283H21.1367V15.7771H20.893L20.7485 15.1141C20.6402 14.6661 20.1887 14.1555 19.1143 14.1555C18.3559 14.1555 17.6246 14.6034 17.6246 15.4366C17.6246 16.1623 18.3288 16.5834 19.015 16.9059L19.7825 17.2643C20.6492 17.6674 21.525 18.3304 21.525 19.5041C21.525 21.2869 20.0262 22.1649 18.4824 22.1649" fill="black"/>
<path d="M24.7833 17.8646C25.5778 17.8646 25.8306 17.757 25.8306 17.3539C25.8306 16.9059 25.334 16.3863 24.5756 16.3863C23.6186 16.3863 23.1401 17.1837 23.0769 17.8646H24.7833ZM24.6749 22.1291C23.2394 22.1291 22.0747 21.0271 22.0747 19.2264C22.0747 17.5958 23.0407 15.8936 24.8826 15.8936C26.3181 15.8936 27.0765 17.0314 27.0765 18.0527C27.0765 18.1423 27.0765 18.2229 27.0675 18.2946H23.0769C23.0046 19.7728 23.7631 21.1077 25.3701 21.1077C26.1105 21.1077 26.6793 20.8569 26.9772 20.624L27.1127 20.7942C26.4084 21.5288 25.7945 22.1381 24.6749 22.1381" fill="black"/>
<path d="M30.4266 16.2965C29.3071 16.2965 28.9369 17.4075 28.9369 18.5005C28.9369 19.5935 29.3974 21.7347 30.7697 21.7347C31.9525 21.7347 32.3317 20.5879 32.3317 19.5039C32.3317 18.4199 31.817 16.2965 30.4266 16.2965ZM30.5259 22.1647C28.7202 22.1647 27.6097 20.9732 27.6097 19.1724C27.6097 17.3716 28.7835 15.8755 30.7336 15.8755C32.5664 15.8755 33.6498 17.1118 33.6498 18.8768C33.6498 20.6417 32.4039 22.1557 30.5259 22.1557" fill="black"/>
<path d="M38.4801 22.1018L38.4079 22.057V21.1342H38.3989C37.8391 21.6987 37.2522 22.1466 36.4126 22.1466C35.2659 22.1466 34.5527 21.4478 34.5527 20.2921V17.5775C34.5527 16.6905 34.4714 16.6189 34.029 16.5382L33.5505 16.4307V16.2694L35.6632 15.9738L35.7535 16.0186V20.0054C35.7535 20.8207 36.2501 21.3223 37.1078 21.3223C37.8572 21.3223 38.3447 20.8834 38.3447 20.4981V17.5685C38.3447 16.6815 38.2725 16.6099 37.821 16.5293L37.3606 16.4218V16.2605L39.4733 15.9648L39.5455 16.0096V20.6504C39.5455 21.5194 39.6267 21.5822 40.0691 21.6897L40.5296 21.7972V21.9585L38.4891 22.0749L38.4801 22.1018Z" fill="black"/>
<path d="M40.8552 21.9767V21.8154L41.2705 21.7079C41.6948 21.5825 41.767 21.5287 41.767 20.6418V14.5407C41.767 13.6537 41.6948 13.5821 41.2434 13.5014L40.7649 13.3939V13.2327L42.8866 12.937L42.9588 12.9818V20.6329C42.9588 21.5198 43.022 21.5736 43.4463 21.699L43.8707 21.8065V21.9678H40.8461L40.8552 21.9767Z" fill="black"/>
<path d="M6.32787 11.0464C6.32787 10.6343 6.6529 10.3655 6.95084 10.3655L7.01404 10.3923C7.10433 10.6074 7.30295 10.7955 7.56477 10.7955C8.11551 10.7955 8.47666 9.97127 8.81072 9.04848L6.76122 4.53313C6.37299 3.69994 6.34591 3.55659 6.09312 3.467L5.81323 3.3595V3.19824H8.64821V3.3595L8.23288 3.47597C7.87173 3.57452 7.74537 3.79848 8.15165 4.74814L9.08156 6.90731C9.2531 7.31943 9.31633 7.52547 9.33439 7.73153H9.37048C9.39757 7.52547 9.46981 7.31942 9.61427 6.89834L10.3365 4.78401C10.6887 3.74476 10.5171 3.58349 10.1379 3.48494L9.71357 3.36847V3.20721H11.9256V3.36847L11.6818 3.47597C11.438 3.58348 11.3387 3.69099 11.0318 4.5421L9.36145 9.15604C8.8107 10.6432 8.07942 11.8079 7.18559 11.8079C6.72513 11.8079 6.34594 11.4944 6.34594 11.0554" fill="black"/>
<path d="M15.4922 3.81659C14.8602 3.81659 14.4088 4.22872 14.4088 4.61396V7.68691C14.4088 8.23341 14.9595 8.65445 15.7179 8.65445C16.9187 8.65445 17.3792 7.4898 17.3792 6.44159C17.3792 5.25899 16.9006 3.81659 15.5012 3.81659M15.5102 9.09349C15.131 9.09349 14.6706 9.05765 14.3997 8.97702V10.4821C14.3997 11.3691 14.5081 11.4138 14.9414 11.5124L15.6096 11.6558V11.817H12.287V11.6558L12.7024 11.5483C13.1267 11.4318 13.1989 11.3691 13.1989 10.4821V4.6408C13.1989 3.75386 13.1267 3.68221 12.6753 3.60158L12.1968 3.49407V3.33282L14.2463 3.04612L14.3185 3.0909V3.98681H14.3275C14.8692 3.43135 15.4651 2.9834 16.3138 2.9834C17.8125 2.9834 18.5348 4.38995 18.5348 5.70694C18.5348 7.52563 17.4695 9.09349 15.4922 9.09349" fill="black"/>
<path d="M21.8406 3.35043C20.721 3.35043 20.3509 4.46137 20.3509 5.55438C20.3509 6.64738 20.8113 8.78859 22.1837 8.78859C23.3664 8.78859 23.7456 7.64184 23.7456 6.55779C23.7456 5.47374 23.231 3.35043 21.8406 3.35043ZM21.9309 9.20969C20.1252 9.20969 19.0146 8.01811 19.0146 6.21734C19.0146 4.41657 20.1884 2.92041 22.1385 2.92041C23.9713 2.92041 25.0547 4.15674 25.0547 5.92168C25.0547 7.68661 23.8088 9.20072 21.9309 9.20072" fill="black"/>
<path d="M27.8806 3.30569C27.1944 3.30569 26.9055 3.87013 26.9055 4.55101C26.9055 5.2767 27.2757 6.27114 28.0792 6.27114C28.7473 6.27114 29.0543 5.70671 29.0543 5.02582C29.0543 4.34493 28.6751 3.30569 27.8806 3.30569ZM28.4042 8.9768H27.0861C26.5714 8.9768 26.1742 9.41576 26.1742 10.0071C26.1742 11.0463 27.1854 11.4584 28.0702 11.4584C28.955 11.4584 29.8759 11.0105 29.8759 10.1146C29.8759 9.26345 29.1446 8.9768 28.4133 8.9768M27.7 11.9064C26.7339 11.9064 25.2623 11.4584 25.2623 10.3117C25.2623 9.56809 25.9214 9.07532 26.4721 8.89614C25.8221 8.82447 25.2984 8.43925 25.2984 7.85691C25.2984 7.43584 25.6144 7.09537 25.9304 6.8266L26.5624 6.31592C26.0658 6.04715 25.7227 5.55439 25.7227 4.84662C25.7227 3.64611 26.8062 2.94731 28.0521 2.94731C28.6751 2.94731 29.28 3.12648 29.6953 3.50276C30.0384 3.11752 30.3544 2.89355 30.7065 2.89355C31.0135 2.89355 31.2663 3.13548 31.2663 3.43113C31.2663 3.6999 31.0315 3.9149 30.8058 3.9149L30.7336 3.87012C30.6704 3.73573 30.5169 3.55657 30.2732 3.55657C30.0926 3.55657 29.9932 3.62824 29.8939 3.71783C30.1016 3.9866 30.237 4.327 30.237 4.73912C30.237 5.95755 29.0995 6.63844 27.9077 6.63844C27.5556 6.63844 27.2125 6.57578 26.8965 6.46827L26.5082 6.79078C26.3096 6.95204 26.1652 7.14017 26.1652 7.33727C26.1652 7.71355 26.5805 7.96442 27.2034 7.96442H28.8737C29.8217 7.93754 30.7336 8.38546 30.7336 9.5591C30.7336 10.903 29.4425 11.9064 27.709 11.9064" fill="black"/>
<path d="M31.6441 9.03046V8.8692L32.0684 8.7617C32.4928 8.63627 32.556 8.58251 32.556 7.69557V4.63153C32.556 3.74458 32.4115 3.67293 31.9601 3.5923L31.4816 3.48479V3.32354L33.6033 3.03684L33.6755 3.08163V4.07607H33.6845C34.2804 3.33247 34.7499 2.97412 35.3187 2.97412C35.7792 2.97412 36.1403 3.31457 36.1403 3.76252C36.1403 4.17464 35.7792 4.46135 35.4361 4.45239L35.3638 4.42549C35.2555 4.15671 34.9756 3.94172 34.6145 3.94172C34.0818 3.94172 33.7477 4.34486 33.7477 4.65843V7.69557C33.7477 8.58251 33.8651 8.62728 34.2985 8.72583L34.9576 8.8692V9.03046H31.6351H31.6441Z" fill="black"/>
<path d="M39.4083 6.05635C37.7019 6.30721 37.3679 6.79993 37.3679 7.43603C37.3679 7.99149 37.8735 8.3409 38.3971 8.3409C39.0201 8.3409 39.4083 7.95569 39.4083 7.58837V6.04738V6.05635ZM40.4195 9.15621C39.8056 9.15621 39.5167 8.77096 39.5076 8.19758H39.4806C39.0743 8.58282 38.5054 9.17409 37.6207 9.17409C36.8893 9.17409 36.149 8.62759 36.149 7.77648C36.149 6.38782 37.4582 6.02947 39.4083 5.66215V4.86478C39.4083 4.06742 38.9298 3.56571 38.1985 3.56571C37.5123 3.56571 37.3408 3.94203 37.3408 4.33623V4.60499L37.3137 4.66771C37.1693 4.7573 36.9616 4.81103 36.7991 4.81103C36.6004 4.81103 36.465 4.71249 36.465 4.48852C36.465 4.11223 36.8713 3.70013 37.1692 3.49407C37.5755 3.21634 38.0992 2.9834 38.668 2.9834C40.0584 2.9834 40.573 3.8166 40.573 4.9544V7.56147C40.573 8.24236 40.6723 8.55591 41.1328 8.55591C41.2953 8.55591 41.4759 8.51112 41.5932 8.44841L41.6835 8.61863C41.4126 8.86949 40.8529 9.15621 40.4015 9.15621" fill="black"/>
<path d="M44.6269 3.81659C43.9949 3.81659 43.5435 4.22872 43.5435 4.61396V7.68691C43.5435 8.23341 44.0942 8.65445 44.8526 8.65445C46.0534 8.65445 46.5139 7.4898 46.5139 6.44159C46.5139 5.25899 46.0354 3.81659 44.636 3.81659M44.654 9.09349C44.2748 9.09349 43.8144 9.05765 43.5435 8.97702V10.4821C43.5435 11.3691 43.6519 11.4138 44.0852 11.5124L44.7533 11.6558V11.817H41.4308V11.6558L41.8462 11.5483C42.2705 11.4318 42.3427 11.3691 42.3427 10.4821V4.6408C42.3427 3.75386 42.2705 3.68221 41.8191 3.60158L41.3406 3.49407V3.33282L43.39 3.04612L43.4623 3.0909V3.98681H43.4713C44.013 3.43135 44.6089 2.9834 45.4576 2.9834C46.9563 2.9834 47.6786 4.38995 47.6786 5.70694C47.6786 7.52563 46.6132 9.09349 44.636 9.09349" fill="black"/>
<path d="M51.5538 9.03075V8.8695L51.9781 8.76199C52.4025 8.63657 52.4657 8.58281 52.4657 7.69586V5.1694C52.4657 4.35412 51.951 3.85239 51.1114 3.85239C50.371 3.85239 49.8835 4.29142 49.8835 4.67666V7.70478C49.8835 8.59172 49.9467 8.64548 50.3711 8.77091L50.7954 8.87841V9.03972H47.7709V8.87841L48.1861 8.77091C48.6105 8.64548 48.6827 8.59172 48.6827 7.70478V1.60365C48.6827 0.716706 48.6105 0.645057 48.1591 0.564426L47.6805 0.456921V0.295665L49.8023 0L49.8745 0.0447844V3.97783H49.8835C50.3801 3.503 50.9218 3.03714 51.7976 3.03714C52.9442 3.03714 53.6574 3.73595 53.6574 4.89167V7.70478C53.6574 8.59172 53.7297 8.64548 54.1541 8.77091L54.5693 8.87841V9.03972H51.5448L51.5538 9.03075Z" fill="black"/>
<path d="M54.5325 11.0464C54.5325 10.6343 54.8575 10.3655 55.1554 10.3655L55.2186 10.3923C55.3089 10.6074 55.5075 10.7955 55.7694 10.7955C56.3201 10.7955 56.6813 9.97127 57.0153 9.04848L54.9658 4.53313C54.5776 3.69994 54.5505 3.55659 54.2977 3.467L54.0178 3.3595V3.19824H56.8528V3.3595L56.4375 3.47597C56.0763 3.57452 55.9499 3.79848 56.3562 4.74814L57.2862 6.90731C57.4577 7.31943 57.5209 7.52547 57.539 7.73153H57.5751C57.6022 7.52547 57.6744 7.31942 57.8189 6.89834L58.5411 4.78401C58.8932 3.74476 58.7217 3.58349 58.3425 3.48494L57.9182 3.36847V3.20721H60.1302V3.36847L59.8864 3.47597C59.6426 3.58348 59.5433 3.69099 59.2363 4.5421L57.566 9.15604C57.0153 10.6432 56.284 11.8079 55.3902 11.8079C54.9297 11.8079 54.5505 11.4944 54.5505 11.0554" fill="black"/>
<path d="M0.758422 0.421387L0.144488 2.43718H0.361164L0.749385 1.66666C1.00218 1.18287 1.38136 0.940973 2.8169 0.940973H3.73783L1.78769 7.38254C1.45363 8.48451 1.30012 8.58309 0.740348 8.69956L0 8.87869V9.03104H4.23439V8.87869C4.07188 8.86078 3.50307 8.7712 3.26833 8.72641C2.78982 8.6189 2.68149 8.44868 2.99748 7.39151L4.95666 0.949941H5.92273C7.35826 0.949941 7.63818 1.19183 7.59304 1.67562L7.53887 2.22211H7.75555L8.34237 0.421387H0.758422Z" fill="black"/>
</svg>
